<svg width="20" height="21" viewBox="0 0 20 21" fill="none" xmlns="http://www.w3.org/2000/svg">
<path d="M17.3372 10.6322C17.2612 10.5881 17.1778 10.5459 17.0915 10.5047C17.1778 10.4634 17.2612 10.4213 17.3372 10.3772C17.7671 10.1328 18.1444 9.80569 18.4474 9.41484C18.7504 9.02399 18.9731 8.57706 19.1027 8.09978C19.2323 7.62251 19.2662 7.12432 19.2024 6.6339C19.1387 6.14347 18.9786 5.6705 18.7313 5.24221C18.484 4.81392 18.1544 4.43877 17.7616 4.13836C17.3687 3.83796 16.9203 3.61822 16.4422 3.49182C15.9641 3.36541 15.4657 3.33482 14.9757 3.40182C14.4857 3.46882 14.0138 3.63207 13.5872 3.88219C13.5112 3.92625 13.4325 3.97594 13.3547 4.03125C13.3622 3.9375 13.3669 3.84375 13.3669 3.75C13.3669 2.75544 12.9718 1.80161 12.2685 1.09835C11.5652 0.395088 10.6114 0 9.61685 0C8.62229 0 7.66847 0.395088 6.9652 1.09835C6.26194 1.80161 5.86685 2.75544 5.86685 3.75C5.86685 3.83812 5.86685 3.93188 5.87904 4.03125C5.80123 3.97781 5.72248 3.92625 5.64654 3.88219C5.2199 3.63207 4.748 3.46882 4.25801 3.40182C3.76802 3.33482 3.26962 3.36541 2.79149 3.49182C2.31337 3.61822 1.86497 3.83796 1.47212 4.13836C1.07926 4.43877 0.749709 4.81392 0.502429 5.24221C0.255148 5.6705 0.0950263 6.14347 0.0312815 6.6339C-0.0324633 7.12432 0.00142819 7.62251 0.131005 8.09978C0.260581 8.57706 0.483283 9.02399 0.78629 9.41484C1.0893 9.80569 1.46662 10.1328 1.89654 10.3772C1.97248 10.4213 2.05592 10.4634 2.14217 10.5047C2.05592 10.5459 1.97248 10.5881 1.89654 10.6322C1.46662 10.8766 1.0893 11.2037 0.78629 11.5945C0.483283 11.9854 0.260581 12.4323 0.131005 12.9096C0.00142819 13.3869 -0.0324633 13.8851 0.0312815 14.3755C0.0950263 14.8659 0.255148 15.3389 0.502429 15.7672C0.749709 16.1955 1.07926 16.5706 1.47212 16.871C1.86497 17.1714 2.31337 17.3912 2.79149 17.5176C3.26962 17.644 3.76802 17.6746 4.25801 17.6076C4.748 17.5406 5.2199 17.3773 5.64654 17.1272C5.72248 17.0831 5.80123 17.0334 5.87904 16.9781C5.87154 17.0719 5.86685 17.1656 5.86685 17.2547C5.86685 18.2492 6.26194 19.2031 6.9652 19.9063C7.66847 20.6096 8.62229 21.0047 9.61685 21.0047C10.6114 21.0047 11.5652 20.6096 12.2685 19.9063C12.9718 19.2031 13.3669 18.2492 13.3669 17.2547C13.3669 17.1666 13.3622 17.0728 13.3547 16.9781C13.4325 17.0316 13.5112 17.0831 13.5872 17.1272C14.1552 17.4563 14.8001 17.6296 15.4565 17.6297C15.7864 17.6293 16.1148 17.5858 16.4334 17.5003C17.1498 17.3083 17.7932 16.9081 18.2822 16.3505C18.7712 15.7928 19.0838 15.1026 19.1806 14.3673C19.2773 13.6319 19.1538 12.8844 18.8257 12.2192C18.4976 11.554 17.9795 11.0011 17.3372 10.6303V10.6322ZM9.61685 13.1297C9.09768 13.1297 8.59016 12.9757 8.15848 12.6873C7.7268 12.3989 7.39035 11.9889 7.19167 11.5092C6.99299 11.0296 6.94101 10.5018 7.04229 9.99258C7.14358 9.48338 7.39359 9.01565 7.7607 8.64853C8.12781 8.28142 8.59554 8.03141 9.10474 7.93013C9.61394 7.82884 10.1417 7.88082 10.6214 8.0795C11.1011 8.27818 11.511 8.61464 11.7995 9.04632C12.0879 9.47799 12.2419 9.98551 12.2419 10.5047C12.2419 11.2009 11.9653 11.8686 11.473 12.3608C10.9807 12.8531 10.313 13.1297 9.61685 13.1297Z" fill="#F1F1F1"/>
</svg>
