<svg width="19" height="22" viewBox="0 0 19 22" fill="none" xmlns="http://www.w3.org/2000/svg">
<path d="M6.75008 2.625C6.75008 2.10583 6.90403 1.59831 7.19247 1.16663C7.48091 0.73495 7.89088 0.398497 8.37053 0.199817C8.85019 0.00113737 9.37799 -0.0508464 9.88719 0.0504398C10.3964 0.151726 10.8641 0.401733 11.2312 0.768846C11.5983 1.13596 11.8484 1.60369 11.9496 2.11289C12.0509 2.62209 11.9989 3.14989 11.8003 3.62955C11.6016 4.1092 11.2651 4.51917 10.8335 4.80761C10.4018 5.09605 9.89425 5.25 9.37508 5.25C8.67888 5.25 8.01121 4.97344 7.51892 4.48116C7.02664 3.98887 6.75008 3.32119 6.75008 2.625ZM18.7126 7.92844C18.6442 7.59241 18.4607 7.29078 18.1937 7.07563C17.9267 6.86048 17.593 6.74531 17.2501 6.75H1.50008C1.1581 6.74998 0.82638 6.86682 0.559898 7.08115C0.293417 7.29548 0.108173 7.59444 0.0348681 7.92847C-0.038437 8.2625 0.00459797 8.61155 0.156841 8.91777C0.309083 9.224 0.561393 9.469 0.871953 9.61219H0.877578L5.92977 11.8369L3.87477 19.6463C3.71794 20.005 3.70761 20.4109 3.846 20.7772C3.98438 21.1435 4.26051 21.4411 4.61539 21.6066C4.81374 21.7007 5.03051 21.7497 5.25008 21.75C5.53284 21.7504 5.80997 21.6709 6.04949 21.5206C6.28901 21.3703 6.48118 21.1554 6.60383 20.9006L9.37508 16.125L12.1482 20.9063C12.3207 21.2571 12.6233 21.5268 12.9917 21.6578C13.3601 21.7888 13.765 21.7708 14.1203 21.6076C14.4756 21.4445 14.7532 21.149 14.8939 20.7843C15.0346 20.4195 15.0273 20.0142 14.8735 19.6547L12.8185 11.8453L17.881 9.61781C18.1952 9.47776 18.4504 9.2321 18.6023 8.92349C18.7542 8.61489 18.7932 8.26282 18.7126 7.92844Z" fill="#F1F1F1"/>
</svg>
