<svg width="434" height="320" viewBox="0 0 434 320" fill="none" xmlns="http://www.w3.org/2000/svg">
<path d="M317.115 177.877C317.593 178.405 318.797 178.718 319.448 179.361C323.587 183.459 325.92 191.538 328.938 196.403C332.021 195.026 335.228 193.797 338.27 192.33C342.986 190.054 350.258 183.706 354.487 189.733C357.933 194.638 352.937 198.991 350.621 203.328C344.957 213.947 339.425 229.298 335.08 240.824C333.868 244.047 329.77 254.237 329.589 256.941C329.548 257.527 329.589 257.922 329.77 258.483C330.29 260.14 336.737 265.013 338.493 267.305C346.663 277.956 347.842 292.772 342.549 304.916C337.825 315.774 330.653 322.311 318.146 319.113C307.659 316.433 301.36 301.445 299.456 291.725C290.7 296.432 282.035 301.535 271.664 299.07C255.356 295.187 248.711 273.76 257.92 260.305C263.51 252.143 272.117 248.615 281.705 247.683C288.087 247.065 288.128 249.538 291.442 243.033C295.482 235.11 302.605 219.19 304.65 210.847C305.227 208.481 304.303 206.255 306.67 204.326C309.901 201.696 314.774 204.334 315.466 208.118C315.87 210.336 313.842 215.917 313.075 218.366C310.388 226.932 301.929 251.83 295.193 256.661C288.507 261.459 278.037 256.331 269.586 263.867C260.954 271.559 265.414 288.583 277.221 288.575C287.172 288.567 302.795 271.072 309.44 286.028C312.507 292.937 312.004 299.252 317.668 305.666C321.946 310.505 327.157 309.12 330.405 304.009C335.236 296.407 335.748 287.545 332.367 279.292C327.173 266.629 314.642 268.995 319.58 250.939C323.315 237.287 330.422 222.603 336.415 209.792C336.704 209.182 338.32 205.183 338.13 204.993C333.414 205.867 329.779 211.276 324.626 209.726C321.971 208.934 320.454 205.636 319.316 203.353C310.8 186.254 300.94 172.37 294.328 153.738C274.929 99.1021 290.024 27.6312 348.815 5.56095C389.518 -9.71595 421.819 10.4581 430.6 51.6555C443.247 111.04 414.49 160.927 375.23 202.306C373.218 204.424 369.154 208.942 366.557 209.825C357.711 212.809 356.474 197.441 361.94 195.76C363.416 195.306 364.933 195.974 366.26 195.133C403.311 157.728 430.723 109.869 419.824 55.2418C413.13 21.7035 389.608 3.68122 355.328 15.2152C299.959 33.8475 287.518 100.99 305.326 150.844C307.024 155.601 314.518 174.984 317.156 177.894L317.115 177.877Z" fill="#0E6160"/>
<path d="M324.5 62.6123C328.103 62.027 331.87 64.6734 331.335 68.5401C330.716 72.9756 324.657 71.8296 323.461 77.7656C322.505 82.5473 325.275 82.3165 325.86 84.8475C327.451 91.7069 318.383 94.8727 314.623 88.4421C311.515 83.1327 312.224 75.3005 315.431 70.1889C317.047 67.6167 321.417 63.1152 324.492 62.6123H324.5Z" fill="#0E6160"/>
<path d="M345.206 34.2853C348.619 34.0215 351.595 37.1131 350.96 40.4933C350.094 45.1267 344.117 44.9123 342.584 49.2242C341.199 53.1238 343.515 52.6209 343.928 55.1107C344.942 61.2198 338.321 63.182 334.496 59.1504C330.53 54.9788 331.52 47.2455 334.15 42.5874C335.931 39.4298 341.545 34.5573 345.206 34.277V34.2853Z" fill="#0E6160"/>
<path d="M132.686 72.8458C153.998 65.2362 178.203 70.5621 187.907 92.4592C195.277 109.088 190.479 124.67 182.358 139.823C178.64 146.757 173.957 155.257 166.612 158.687C165.622 160.311 167.939 164.738 168.706 166.494C177.568 186.899 192.128 212.366 207.306 228.575C210.818 232.326 217.199 234.947 214.223 241.337C212.162 245.764 205.764 245.179 201.535 246.185C187.519 249.524 173.999 252.78 166.158 266.095C163.965 269.821 162.341 275.675 160.032 278.849C157.848 281.842 153.346 281.792 151.112 278.915C148.507 275.559 149.661 270.267 149.307 266.342C148.309 255.427 142.711 245.83 135.819 237.586C132.9 234.098 124.087 225.483 120.311 223.422C118.332 222.35 116.848 222.729 115.133 220.957C111.143 216.843 113.427 210.14 119.437 210.808L148.861 217.115C144.385 209.596 138.712 202.036 135.481 193.866C133.766 189.537 130.221 181.144 135.514 178.374C143.09 174.4 144.541 186.075 146.404 190.584C152.489 205.259 163.215 215.161 171.253 227.758C173.125 230.685 174.361 234.453 171.525 237.305C167.147 241.708 162.069 235.929 158.54 233.736C153.495 230.586 148.095 228.212 142.117 227.462C149.067 236.085 156.001 245.261 158.755 256.218C163.487 251.107 168.739 246.292 174.922 242.953C182.193 239.028 190.38 237.553 198.303 235.541C185.903 221.649 175.977 205.812 167.502 189.265C161.607 177.764 157.642 167.78 153.577 155.554C152.728 153.006 150.914 152.495 152.975 149.098C155.605 144.778 159.736 148.323 162.465 147.837C166.026 147.202 173.867 132.041 175.458 128.438C181.74 114.233 183.183 97.8181 169.992 87.0097C161.912 80.3894 146.017 78.6993 136.857 83.5553C134.656 84.726 136.033 85.2124 135.86 87.0097C135.052 95.5262 132.356 106.087 125.942 112.188C115.57 122.057 102.833 114.793 105.916 100.704C107.986 91.2555 115.059 83.7696 122.595 78.2459C121.556 72.2851 117.162 66.7531 111.852 63.7934C98.9166 56.5713 80.7542 62.3424 69.5995 70.6857C62.0724 76.3167 57.1834 85.031 56.2601 94.4296C63.9109 94.2977 72.4686 95.1716 79.1548 99.1867C91.4802 106.598 90.3919 122.172 76.937 127.457C62.163 133.261 50.019 120.037 46.1194 107.002C26.6791 111.067 5.46622 126.418 12.7708 148.925C16.6292 160.797 29.2761 168.976 40.6699 172.578C48.5103 161.201 64.8178 150.31 78.8992 156.51C86.8716 160.022 89.9467 168.803 85.4041 176.363C80.2431 184.945 64.7848 187.493 55.5758 187.023C53.8527 186.932 48.7247 185.761 47.5704 186.157C45.3609 186.915 45.3279 199.101 45.6825 201.409C47.117 210.618 56.5239 217.989 65.535 218.863C74.7111 219.753 84.7445 214.097 92.1892 209.217C95.4375 207.081 102.346 200.519 105.817 201.03C108.942 201.483 110.459 204.839 109.552 207.708C108.266 211.822 90.0292 223.364 85.5772 225.532C70.9268 232.672 54.8255 231.831 42.9865 219.835C33.151 209.868 32.6645 195.918 35.9953 183.008C12.6059 175.035 -6.57888 153.88 2.20142 127.787C6.85952 113.944 19.9434 104.001 33.2252 99.0383C36.9681 97.6367 40.8595 96.9277 44.6189 95.6004C45.328 88.5349 47.15 81.758 50.6374 75.5499C60.9429 57.1649 88.0918 45.26 108.596 50.421C119.486 53.1581 129.701 61.8889 132.686 72.854V72.8458ZM116.947 104.752C120.839 101.891 122.71 96.7628 123.683 92.1707C120.121 95.2871 117.186 99.9204 116.947 104.752ZM58.0573 105.659C58.4696 110.416 65.1558 117.712 69.9705 117.704C72.4438 117.704 76.9453 115.156 76.4176 112.279C75.4695 107.11 62.3527 105.428 58.0573 105.659ZM53.1107 175.307C59.0879 176.082 69.9705 175.678 74.6946 171.498C77.102 169.371 75.9725 166.799 73.0869 166.346C65.6669 165.175 57.5956 169.619 53.1107 175.307Z" fill="#0E6160"/>
<path d="M124.135 150.144C123.228 141.644 133.394 140.548 134.424 149.072C136.238 164.077 120.318 165.355 113.417 154.341C110.878 150.284 109.543 141.957 115.94 141.24C122.899 140.457 119.576 148.652 124.135 150.144Z" fill="#0E6160"/>
<path d="M94.9916 146.929C95.0493 147.028 96.9455 147.877 97.1764 147.696C98.512 143.986 99.7734 140.622 104.489 141.702C109.807 142.922 107.737 151.81 105.454 155.058C98.3306 165.166 79.3025 152.065 84.1914 143.236C86.4751 139.113 93.2685 139.122 94.6124 143.928C94.8597 144.827 94.802 146.624 94.9916 146.921V146.929Z" fill="#0E6160"/>
<path d="M99.3072 161.924C100.799 161.676 102.267 161.998 103.446 162.971C105.326 164.529 104.847 168.618 108.211 168.577C109.53 168.56 109.522 165.04 111.987 164.281C119.712 161.899 121.147 172.18 116.686 176.615C109.299 183.961 92.7776 174.777 95.1438 165.864C95.6137 164.108 97.5017 162.229 99.3155 161.932L99.3072 161.924Z" fill="#0E6160"/>
<path d="M338.907 78.3272C341.735 78.0717 344.727 80.479 344.769 83.3976C344.843 88.0227 338.058 89.1934 340.193 96.1434C340.655 97.6604 342.37 98.7157 342.584 100.529C343.021 104.231 340.028 106.49 336.516 106.119C330.58 105.493 329.154 95.7477 329.566 91.0566C329.978 86.3655 333.705 78.7972 338.907 78.3355V78.3272Z" fill="#0E6160"/>
</svg>
