<svg width="412" height="356" viewBox="0 0 412 356" fill="none" xmlns="http://www.w3.org/2000/svg">
<path d="M177.657 21.3712C200.324 18.0043 214.674 28.0504 225.413 46.9143C236.894 67.0847 239.231 76.7217 263.418 84.0487C305.365 96.7577 380.893 86.8757 398.236 139.485C419.841 205.021 327.566 212.331 299.135 250.829C285.062 269.891 277.206 291.58 260.25 309.406C224.474 347.029 152.483 365.836 115.136 320.661C101.025 303.585 94.232 281.461 77.8609 266.106C54.1674 243.886 8.62832 244.02 9.47116 200.889C10.2304 162.068 61.4918 118.356 87.2846 92.6253C105.625 74.3262 120.808 52.8828 142.128 37.8626C151.691 31.1249 166.01 23.0913 177.657 21.3634L177.657 21.3712Z" fill="#FF7872" fill-opacity="0.2"/>
<path d="M127.946 131.638C140.85 142.612 156.257 147.764 172.044 146.9C181.721 146.37 191.548 143.582 201.03 138.484C213.382 131.843 223.984 121.56 230.864 109.534C238.3 96.5427 241.285 81.9967 239.5 67.4705C236.998 47.1199 225.293 29.1265 207.373 18.1001C188.421 6.43714 164.699 3.9203 143.916 11.3579C131.743 15.7154 121.111 25.4549 116.179 36.7591C112.161 45.9653 112.053 55.5103 115.851 64.3664C118.898 71.4648 124.005 76.0287 130.214 77.215C136.485 78.4057 143.275 75.9782 148.941 70.5363C156.849 73.1403 164.923 72.2233 173.573 67.7471C179.944 71.1828 186.754 72.1026 194.883 70.6297C200.943 77.2205 213.288 82.416 220.566 76.224C222.458 74.6097 223.153 72.0643 222.293 69.8843C221.506 67.895 219.659 66.7735 217.358 66.8917L217.334 66.893C216.503 66.9386 215.803 67.2572 215.179 67.5405C214.776 67.7261 214.395 67.8949 214.056 67.9602C210.992 68.5329 208.619 67.1911 205.875 65.636C205.771 65.5794 205.666 65.5228 205.569 65.4581C212.027 59.6769 215.57 52.4747 215.336 45.487C215.175 40.5589 212.668 36.1953 208.794 34.0868C205.267 32.1697 201.06 32.3689 197.263 34.6481C190.665 38.5991 188.178 47.2854 188.632 54.1442C188.733 55.7117 189.127 57.0606 189.443 58.149C189.654 58.8617 189.963 59.9505 189.836 60.1833C189.821 60.2075 189.419 60.6889 186.086 60.4743C185.288 60.4245 184.457 60.1975 183.571 59.9579C183.333 59.893 183.103 59.8277 182.859 59.771C183.34 58.8726 183.901 58.0242 184.493 57.1508C185.509 55.6312 186.561 54.0552 187.276 52.0303C190.839 41.9224 186.493 34.1554 180.589 31.9868C175.887 30.2585 169.736 32.1293 166.602 40.2359C164.436 45.8209 164.437 52.2529 166.57 58.8874C163.696 60.2206 160.43 61.3728 157.033 61.1305C160.613 54.8918 162.022 48.0088 161.015 41.5852C160.287 36.9684 157.649 33.4919 153.765 32.0537C149.842 30.6021 145.327 31.5735 141.691 34.6615C133.309 41.7705 134.714 54.7524 140.307 63.6348C137.185 66.1263 134.234 67.051 131.746 66.3306C128.942 65.5185 126.612 62.5547 125.177 57.9844C123.156 51.5462 123.883 44.8875 127.272 38.7215C131.951 30.2111 141.32 23.1882 151.731 20.3912C169.779 15.5407 188.815 18.6255 203.978 28.8529C217.918 38.2595 226.693 52.5588 228.683 69.1139C231.303 90.9064 220.098 113.386 200.133 126.377C181.795 138.314 160.391 139.253 142.881 128.881C129.409 120.897 115.326 101.765 116.079 84.7714C116.118 83.9049 116.4 82.9394 116.703 81.9183C117.361 79.6942 118.176 76.9319 115.985 74.7858C114.485 73.3183 112.947 73.2702 111.922 73.4898C109.98 73.8998 108.127 75.6521 107.215 77.9447C104.178 85.5553 105.293 95.9522 110.355 107.231C114.582 116.671 121.324 126.028 127.931 131.646L127.946 131.638ZM148.031 43.8067C149.062 42.4187 149.586 42.2966 149.577 42.2737C150.061 42.5743 150.62 45.09 150.372 47.829C150.277 48.6519 148.995 52.7168 148.02 54.8493C146.194 49.9812 146.202 46.2741 148.031 43.8067ZM175.902 50.4805C175.845 48.8717 175.946 47.2854 176.398 45.5787C176.572 44.915 176.968 43.8811 177.342 43.1753C178.068 45.6041 177.331 48.3776 175.902 50.4805ZM200.09 48.4009C200.493 46.6578 202.17 43.9652 203.321 43.9022C203.383 43.8988 203.445 43.9031 203.508 43.9153C204.409 44.123 204.383 45.7908 204.336 46.502C204.084 49.8642 201.894 54.2903 200 55.7411C199.705 53.3277 199.523 50.8614 200.098 48.4004L200.09 48.4009Z" fill="#FF7872"/>
<path d="M311.59 283.077C311.252 281.749 310.896 280.382 310.606 278.926C310.101 276.392 309.662 273.792 309.236 271.277C308.462 266.678 307.656 261.918 306.429 257.313C301.088 237.226 288.383 215.916 271.567 198.849C253.868 180.888 233.055 168.844 212.96 164.937C187.215 159.922 159.758 165.218 135.649 179.846C112.091 194.132 94.1757 215.647 85.2104 240.433C82.0146 249.275 77.393 265.967 77.7861 275.71C77.9399 279.657 80.5208 281.657 82.8542 281.841C85.305 282.034 88.1677 280.351 89.0138 276.154C89.4683 273.918 89.651 271.416 89.8228 269C89.9753 266.944 90.124 264.818 90.4469 262.885C96.1606 228.262 120.37 197.533 153.62 182.693C183.087 169.539 214.861 171.46 240.783 187.95C268.489 205.574 289.268 233.365 296.364 262.294C297.337 266.267 298.048 270.41 298.734 274.406C299.41 278.356 300.101 282.422 301.067 286.395C301.012 286.398 300.958 286.408 300.904 286.419C295.905 287.246 290.134 287.492 284.565 287.726C281.508 287.855 278.614 287.982 275.835 288.189C264.352 289.067 252.647 289.871 241.338 290.646C200.583 293.446 158.447 296.345 117.531 303.179L115.345 303.54C102.566 305.665 88.0801 308.085 76.0805 311.912C75.8658 311.978 75.6205 312.054 75.3596 312.13C73.8172 312.581 71.8994 313.153 70.919 314.328C69.8734 315.592 69.5242 317.332 69.9887 318.981C70.4425 320.576 71.603 321.836 73.1048 322.353C73.6928 322.555 74.4678 322.614 75.4162 322.562C77.9968 322.42 81.8106 321.448 86.3129 320.236C87.9957 319.786 89.4478 319.395 90.4036 319.195C142.239 308.601 195.742 304.838 247.49 301.195L255.846 300.605C260.615 300.266 265.605 300.001 270.433 299.744C281.161 299.173 292.245 298.574 302.607 297.158C307.405 296.498 310.305 295.21 311.718 293.108C313.513 290.44 312.632 287.015 311.612 283.061L311.59 283.077Z" fill="#FF7872"/>
</svg>
