<svg width="409" height="392" viewBox="0 0 409 392" fill="none" xmlns="http://www.w3.org/2000/svg">
<path d="M209.148 0.672334C249.332 -1.51684 280.175 22.4343 304.953 50.926C315.445 62.9907 322.182 74.9014 337.142 82.3932C353.293 90.477 373.952 92.7959 387.631 104.844C421.668 134.836 406.66 174.144 399.03 211.733C392.544 243.687 397.393 276.208 395.82 308.413C393.525 355.269 358.847 389.372 312.047 391.285C282.104 392.51 238.426 375.142 211.597 361.731C201.21 356.542 193.865 351.442 182.375 347.64C146.132 335.632 104.425 328.853 66.9818 319.805C43.7117 314.178 20.9606 300.848 10.6796 278.413C-1.70952 251.389 -3.33923 219.314 12.3417 193.287C25.6227 171.249 44.2144 158.698 61.1683 140.447C95.8707 103.069 107.514 49.726 149.87 19.1911C164.919 8.34254 190.727 1.67773 209.156 0.672334H209.148Z" fill="#E7FBE4"/>
<path d="M262.823 55.583C257.967 64.5748 255.826 85.3882 240.721 79.2261C233.237 76.1774 224.416 56.937 221.87 56.4992C221.002 56.3533 220.321 57.8938 219.997 58.51C217.459 63.237 217.191 69.4478 213.746 73.9153C207.746 81.6747 200.537 76.5504 195.892 70.5748C192.316 65.9775 190.184 60.4073 187.013 55.583C186.089 55.3803 186.413 55.9803 186.138 56.4587C181.792 63.9262 181.735 82.6801 169.776 81.6666C161.408 80.9531 149.278 61.6721 146.262 61.3884C144.179 62.6613 142.597 66.2289 141.616 68.5397C139.273 74.0612 138 83.1747 132.827 86.7098C122.052 94.08 110.887 74.2396 104.782 67.9559C101.546 72.9828 102.438 83.9693 97.9383 87.6341C90.6006 93.6097 84.2844 81.3179 79.8088 77.2396C80.0196 85.1287 80.352 93.0178 80.6682 100.907C83.2871 166.655 83.8952 232.427 90.86 298.013C92.0762 309.494 93.5519 321 94.8411 332.489C95.6762 339.932 96.7546 347.367 97.4843 354.818C102.414 354.697 107.392 354.64 112.314 354.389C162.397 351.875 212.537 349.313 262.596 345.089C293.602 342.47 324.55 338.343 355.661 337.135L354.315 316.597L353.909 283.857C352.871 250.452 350.812 217.282 347.253 183.99C345.388 166.55 342.485 148.809 341.074 131.385C339.185 108.172 339.071 84.7719 337.085 61.5586C336.704 57.0911 334.215 46.7453 335.544 43.2102C336.607 40.3561 339.696 38.702 342.566 40.1777C345.598 41.7345 344.682 44.0453 345.104 46.4777C349.158 69.7072 349.847 91.2097 351.225 114.618C353.22 148.639 358.977 182.32 361.847 216.26C364.579 248.579 364.401 281.108 365.366 313.516C365.625 322.175 366.914 330.924 367.174 339.559C367.255 342.421 367.62 345.745 364.814 347.408C362.009 349.07 360.906 347.724 358.579 347.805C327.493 348.818 295.426 353.521 264.364 356.156C212.116 360.591 159.778 363.859 107.417 364.978C102.422 365.083 91.7195 366.77 87.5195 364.572C83.3196 362.375 85.6628 359.302 86.0114 356.391C86.7006 350.562 84.4384 340.094 83.7898 333.835C80.6114 303.04 76.7521 272.368 74.9521 241.46C71.8791 188.847 70.1845 136.371 69.6575 83.653C69.6007 78.2693 68.8224 72.7639 69.1791 67.2991C69.5116 62.1343 70.971 57.1884 77.4737 59.4829C79.7601 60.2938 85.4438 67.9478 87.5357 70.1937C87.933 70.6153 91.087 73.8828 91.2979 73.7207C92.9032 67.218 96.6168 53.71 105.463 54.8938C111.503 55.7046 117.438 66.5208 121.581 71.0775C123.252 72.918 125.189 74.5477 126.892 76.3639C130.962 67.1126 134.489 48.4479 148.07 50.3371C155.4 51.3506 162.065 62.937 167.546 67.5505C167.976 67.9072 170.019 69.6829 170.424 69.3018C172.176 60.9749 176.408 42.302 187.848 43.7047C195.762 44.6696 199.159 55.5911 202.954 61.3073C203.456 62.0613 205.183 64.8667 206.01 64.8829C208.459 58.356 209.846 49.4533 216.827 46.0804C230.505 39.4642 236.448 60.4154 243.372 67.745C243.916 68.3207 244.378 69.0423 245.334 68.8721C246.024 68.7505 249.64 57.8127 250.353 56.1749C251.943 52.5425 254.415 47.7182 257.805 45.4966C269.407 37.8912 277.24 56.5235 282.704 63.5451C283.677 59.4181 284.65 55.2587 286.126 51.2696C287.602 47.2804 290.699 39.7075 295.41 38.8967C307.426 36.8453 310.507 55.1533 315.193 62.6532C319.693 52.7857 319.831 40.0966 323.812 30.1643C324.696 27.967 325.369 26.5481 328.004 26.3779C336.12 25.8508 332.917 36.7318 332.082 41.5237C330.72 49.3641 326.901 68.2234 322.239 74.1099C318.728 78.545 313.264 78.7963 309.445 74.5963C304.434 69.0991 301.839 58.4776 297.964 52.056C293.002 59.5803 295.021 79.5098 281.261 76.6964C274.831 75.3828 268.961 61.4694 264.567 56.7019C264.072 56.1668 263.683 55.437 262.815 55.583H262.823Z" fill="#0E6160"/>
<path d="M246.02 166.517C246.376 166.785 252.06 163.647 253.098 163.217C283.998 150.472 304.86 166.615 302.589 199.444C300.116 235.266 259.609 290.716 221.047 291.187C218.469 291.219 215.428 290.181 213.133 290.295C210.839 290.408 207.774 291.592 205.131 291.624C194.574 291.754 183.085 286.111 174.88 279.835C171.442 277.208 162.596 269.433 161.226 265.646C159.572 261.065 163.958 256.922 168.531 258.779C170.355 259.517 176.599 266.935 178.804 268.833C188.931 277.565 202.504 284.068 215.46 277.184C219.271 275.157 222.482 269.108 223.69 265.079C231.417 239.238 211.755 201.617 188.834 188.977C161.437 173.863 148.196 194.247 151.966 220.533C152.437 223.801 155.088 231.009 154.918 233.425C154.504 239.409 146.42 240.795 143.866 234.382C134.899 211.858 140.85 173.32 171.053 172.68C175.366 172.59 179.542 174.05 183.677 174.269C187.853 164.831 193.398 155.166 202.544 149.799C220.09 139.493 237.441 150.609 246.012 166.509L246.02 166.517ZM235.552 170.353C233.225 167.215 231.206 164.207 228.117 161.653C212.501 148.745 199.017 164.726 193.877 179.077C209.485 188.433 221.444 203.158 228.847 219.706C235.925 235.525 239.104 254.003 233.639 270.835C238.374 266.441 241.706 259.484 243.814 253.395C251.882 230.141 250.471 190.452 235.552 170.361V170.353ZM250.001 267.738C263.987 256.76 276.027 242.117 283.527 225.909C289.357 213.317 294.968 194.158 289.414 180.812C282.846 165.026 263.346 168.901 251.801 176.547C252.911 180.642 254.557 184.696 255.701 188.879C262.698 214.558 261.141 243.519 249.993 267.738H250.001Z" fill="#0E6160"/>
</svg>
