<svg width="245" height="311" viewBox="0 0 245 311" fill="none" xmlns="http://www.w3.org/2000/svg">
<path d="M68.5377 122.645C80.822 134.308 95.9244 140.295 111.735 140.295C121.427 140.295 131.392 138.048 141.138 133.476C153.835 127.52 164.983 117.832 172.51 106.2C180.645 93.635 184.421 79.2739 183.432 64.6718C182.047 44.2149 171.343 25.6085 154.053 13.619C135.767 0.937377 112.218 -2.87254 91.0589 3.41771C78.6656 7.10322 67.5179 16.247 61.9752 27.2647C57.4601 36.2374 56.8295 45.7622 60.138 54.8127C62.7926 62.0671 67.6425 66.9033 73.7768 68.4273C79.9735 69.9591 86.8863 67.9064 92.8416 62.7824C100.595 65.8148 108.707 65.3405 117.589 61.344C123.763 65.1228 130.512 66.4135 138.709 65.3872C144.4 72.2994 156.443 78.162 164.048 72.3772C166.026 70.8688 166.859 68.3651 166.119 66.1414C165.442 64.112 163.659 62.8913 161.355 62.8835H161.332C160.499 62.8835 159.782 63.1634 159.144 63.4122C158.731 63.5755 158.342 63.7232 158 63.7699C154.909 64.1742 152.613 62.7047 149.958 61.0019C149.857 60.9397 149.756 60.8775 149.662 60.8075C156.427 55.3881 160.358 48.3903 160.506 41.4002C160.615 36.4707 158.35 31.9765 154.598 29.6595C151.18 27.5524 146.969 27.5213 143.053 29.5895C136.249 33.1739 133.291 41.7113 133.369 48.5847C133.384 50.1553 133.704 51.5237 133.96 52.6278C134.132 53.3509 134.381 54.455 134.241 54.6805C134.225 54.7038 133.797 55.1626 130.481 54.766C129.687 54.6727 128.869 54.4006 127.997 54.1129C127.764 54.0352 127.538 53.9574 127.297 53.8874C127.826 53.0166 128.433 52.2002 129.072 51.3604C130.169 49.8987 131.306 48.3825 132.131 46.3998C136.241 36.5018 132.326 28.5087 126.549 26.0206C121.949 24.0379 115.705 25.5696 112.132 33.4927C109.664 38.951 109.314 45.3734 111.081 52.1147C108.139 53.2887 104.815 54.2606 101.436 53.833C105.352 47.7993 107.134 41.0037 106.48 34.5346C106.006 29.885 103.561 26.2694 99.7622 24.6211C95.9243 22.9571 91.3625 23.6802 87.5636 26.5649C78.8058 33.205 79.4986 46.2443 84.5976 55.4192C81.3436 57.7362 78.3465 58.4982 75.9021 57.6429C73.1463 56.6788 70.9821 53.592 69.7989 48.9501C68.1329 42.411 69.2228 35.802 72.9439 29.8305C78.0818 21.5887 87.8205 15.0885 98.3688 12.8647C116.655 9.00818 135.494 13.1291 150.075 24.1701C163.48 34.3247 171.459 49.0823 172.542 65.7215C173.966 87.6246 161.55 109.458 140.904 121.339C121.941 132.255 100.517 132.022 83.6012 120.709C70.5851 112 57.5691 92.1265 59.2506 75.1996C59.3362 74.3366 59.6709 73.388 60.029 72.385C60.8075 70.2001 61.7728 67.4865 59.7021 65.2239C58.2853 63.6766 56.7517 63.5444 55.7163 63.7077C53.7546 64.0109 51.8084 65.6593 50.773 67.8986C47.3244 75.3318 47.8693 85.7741 52.3066 97.3127C56.0121 106.97 62.2321 116.681 68.5222 122.653L68.5377 122.645ZM93.3943 36.043C94.4998 34.7134 95.0291 34.6201 95.0213 34.5968C95.4884 34.9234 95.9088 37.4659 95.5118 40.1873C95.3716 41.0037 93.8692 44.9924 92.7793 47.0685C91.2224 42.1078 91.4326 38.4067 93.3943 36.043ZM120.859 44.2305C120.89 42.621 121.077 41.0426 121.622 39.3631C121.832 38.71 122.283 37.6992 122.696 37.0149C123.288 39.4797 122.4 42.2089 120.859 44.2305ZM145.124 43.4763C145.622 41.7579 147.444 39.1609 148.596 39.1609C148.658 39.1609 148.72 39.1687 148.783 39.1843C149.67 39.4409 149.553 41.1048 149.468 41.8123C149.032 45.1557 146.603 49.4555 144.633 50.8006C144.47 48.3747 144.423 45.9022 145.132 43.4763H145.124Z" fill="#FF7872"/>
<path d="M243.621 283.897C243.357 282.552 243.076 281.168 242.866 279.699C242.5 277.14 242.204 274.52 241.916 271.985C241.395 267.351 240.85 262.554 239.877 257.889C235.642 237.541 224.121 215.568 208.263 197.606C191.573 178.705 171.449 165.541 151.598 160.541C126.165 154.127 98.4597 157.913 73.5875 171.201C49.2837 184.178 30.2189 204.682 19.9119 228.941C16.2375 237.595 10.7104 254.009 10.5703 263.759C10.508 267.709 12.9757 269.847 15.2956 270.158C17.7322 270.485 20.6826 268.961 21.7569 264.817C22.333 262.608 22.6521 260.12 22.9557 257.718C23.2204 255.673 23.4851 253.558 23.9133 251.645C31.5112 217.387 57.3642 188.027 91.3756 175.027C121.518 163.504 153.14 167.158 178.121 185.042C204.822 204.153 224.051 233.039 229.554 262.313C230.309 266.333 230.792 270.508 231.259 274.536C231.718 278.517 232.186 282.614 232.933 286.634C232.878 286.634 232.824 286.642 232.769 286.65C227.733 287.202 221.956 287.132 216.383 287.062C213.323 287.023 210.427 286.992 207.64 287.046C196.127 287.295 184.395 287.458 173.061 287.614C132.214 288.181 89.9821 288.772 48.7543 293.36L46.5512 293.601C33.6753 295.024 19.079 296.649 6.8881 299.813C6.67012 299.868 6.42102 299.93 6.15634 299.992C4.59161 300.358 2.64543 300.824 1.60227 301.944C0.48906 303.149 0.0453342 304.867 0.419 306.539C0.784882 308.156 1.87474 309.478 3.34605 310.077C3.92212 310.31 4.69281 310.411 5.64254 310.411C8.22707 310.411 12.0883 309.649 16.6501 308.685C18.355 308.327 19.8263 308.016 20.7916 307.869C73.1282 300.124 126.757 299.292 178.627 298.484L187.003 298.352C191.783 298.274 196.781 298.282 201.615 298.289C212.358 298.305 223.459 298.313 233.883 297.465C238.709 297.069 241.675 295.941 243.201 293.92C245.139 291.354 244.446 287.886 243.645 283.882L243.621 283.897Z" fill="#FF7872"/>
</svg>
