<svg width="299" height="340" viewBox="0 0 299 340" fill="none" xmlns="http://www.w3.org/2000/svg">
<path d="M193.909 29.292C189.053 38.2838 186.912 59.0972 171.807 52.935C164.323 49.8864 155.502 30.646 152.956 30.2082C152.088 30.0622 151.407 31.6028 151.083 32.219C148.545 36.946 148.277 43.1568 144.831 47.6243C138.831 55.3837 131.623 50.2594 126.978 44.2838C123.402 39.6865 121.269 34.1163 118.099 29.292C117.175 29.0893 117.499 29.6893 117.224 30.1676C112.878 37.6352 112.821 56.3891 100.862 55.3756C92.4941 54.6621 80.3644 35.3811 77.3482 35.0974C75.2645 36.3703 73.6834 39.9379 72.7023 42.2486C70.3591 47.7702 69.0861 56.8836 63.9132 60.4187C53.1376 67.789 41.9728 47.9486 35.8675 41.6648C32.6324 46.6918 33.5242 57.6782 29.0243 61.3431C21.6865 67.3187 15.3704 55.0269 10.8947 50.9486C11.1055 58.8377 11.4379 66.7268 11.7542 74.6159C14.3731 140.364 14.9812 206.136 21.946 271.722C23.1622 283.203 24.6378 294.709 25.927 306.198C26.7621 313.641 27.8405 321.076 28.5702 328.527C33.4999 328.406 38.4783 328.349 43.3999 328.098C93.4832 325.584 143.623 323.022 193.682 318.798C224.688 316.179 255.636 312.052 286.747 310.844L285.401 290.306L284.995 257.566C283.957 224.161 281.898 190.991 278.338 157.699C276.474 140.259 273.571 122.518 272.16 105.094C270.271 81.8808 270.157 58.4809 268.171 35.2676C267.79 30.8001 265.301 20.4542 266.63 16.9191C267.693 14.0651 270.782 12.411 273.652 13.8867C276.684 15.4434 275.768 17.7542 276.19 20.1867C280.244 43.4162 280.933 64.9187 282.311 88.3266C284.306 122.348 290.063 156.029 292.933 189.969C295.665 222.288 295.487 254.817 296.452 287.225C296.711 295.884 298 304.633 298.26 313.268C298.341 316.13 298.706 319.454 295.9 321.117C293.095 322.779 291.992 321.433 289.665 321.514C258.579 322.527 226.512 327.23 195.45 329.865C143.202 334.3 90.8643 337.568 38.5026 338.687C33.508 338.792 22.8054 340.479 18.6055 338.281C14.4055 336.084 16.7487 333.011 17.0974 330.1C17.7866 324.271 15.5244 313.803 14.8757 307.544C11.6974 276.749 7.83799 246.077 6.038 215.169C2.96506 162.556 1.27045 110.08 0.74343 57.362C0.686674 51.9783 -0.0916707 46.4729 0.265083 41.0081C0.597513 35.8433 2.05694 30.8974 8.55959 33.1919C10.8461 34.0027 16.5298 41.6567 18.6216 43.9027C19.0189 44.3243 22.173 47.5918 22.3838 47.4296C23.9892 40.927 27.7027 27.419 36.5486 28.6028C42.5891 29.4136 48.5241 40.2298 52.6674 44.7865C54.3376 46.627 56.2754 48.2567 57.9781 50.0729C62.0483 40.8216 65.5753 22.1569 79.1563 24.0461C86.486 25.0596 93.1508 36.646 98.6318 41.2594C99.0616 41.6162 101.105 43.3919 101.51 43.0108C103.261 34.6838 107.494 16.011 118.934 17.4137C126.848 18.3786 130.245 29.3001 134.04 35.0162C134.542 35.7703 136.269 38.5757 137.096 38.5919C139.545 32.0649 140.932 23.1623 147.913 19.7894C161.591 13.1732 167.534 34.1244 174.458 41.454C175.001 42.0297 175.464 42.7513 176.42 42.5811C177.11 42.4594 180.726 31.5217 181.439 29.8839C183.028 26.2515 185.501 21.4272 188.891 19.2056C200.493 11.6002 208.326 30.2325 213.79 37.2541C214.763 33.1271 215.736 28.9677 217.212 24.9785C218.688 20.9894 221.785 13.4165 226.496 12.6057C238.512 10.5543 241.593 28.8623 246.279 36.3622C250.779 26.4947 250.917 13.8056 254.898 3.87328C255.782 1.676 256.455 0.25711 259.09 0.0868413C267.206 -0.440181 264.003 10.4408 263.168 15.2327C261.806 23.0731 257.987 41.9324 253.325 47.8189C249.814 52.254 244.35 52.5053 240.531 48.3053C235.52 42.8081 232.925 32.1866 229.05 25.765C224.088 33.2893 226.106 53.2188 212.347 50.4053C205.917 49.0918 200.047 35.1784 195.653 30.4109C195.158 29.8757 194.769 29.146 193.901 29.292H193.909Z" fill="#0E6160"/>
<path d="M177.106 140.226C177.462 140.494 183.146 137.356 184.184 136.926C215.084 124.181 235.946 140.324 233.675 173.153C231.202 208.974 190.695 264.425 152.133 264.896C149.554 264.928 146.514 263.89 144.219 264.004C141.925 264.117 138.86 265.301 136.217 265.333C125.66 265.463 114.171 259.82 105.966 253.544C102.528 250.917 93.6819 243.142 92.3117 239.355C90.6576 234.774 95.0441 230.631 99.617 232.488C101.441 233.226 107.685 240.644 109.89 242.542C120.017 251.274 133.59 257.777 146.546 250.893C150.357 248.866 153.568 242.817 154.776 238.788C162.503 212.947 142.841 175.326 119.92 162.686C92.5225 147.572 79.282 167.956 83.0523 194.242C83.5225 197.51 86.1739 204.718 86.0036 207.134C85.5901 213.118 77.5064 214.504 74.9523 208.091C65.9848 185.567 71.9362 147.029 102.139 146.389C106.452 146.299 110.628 147.759 114.763 147.978C118.939 138.54 124.484 128.875 133.63 123.508C151.176 113.202 168.527 124.318 177.098 140.218L177.106 140.226ZM166.638 144.062C164.311 140.924 162.292 137.916 159.203 135.362C143.587 122.454 130.103 138.434 124.963 152.786C140.571 162.142 152.53 176.867 159.933 193.415C167.011 209.234 170.189 227.712 164.725 244.544C169.46 240.15 172.792 233.193 174.9 227.104C182.968 203.85 181.557 164.161 166.638 144.07V144.062ZM181.087 241.447C195.073 230.469 207.113 215.826 214.613 199.618C220.443 187.026 226.054 167.867 220.5 154.521C213.932 138.735 194.432 142.61 182.887 150.256C183.997 154.351 185.643 158.405 186.787 162.588C193.784 188.267 192.227 217.228 181.078 241.447H181.087Z" fill="#0E6160"/>
</svg>
