<svg width="469" height="363" viewBox="0 0 469 363" fill="none" xmlns="http://www.w3.org/2000/svg">
<path d="M230.529 0.293438C255.624 -2.06924 270.778 9.96918 281.438 31.5881C292.834 54.7043 294.82 65.5571 320.942 75.1723C366.243 91.8495 449.781 85.4625 465.663 144.988C485.45 219.14 383.675 221.65 350.138 262.707C333.537 283.036 323.605 306.663 303.913 325.443C262.362 365.081 182.171 381.602 143.874 329.122C129.405 309.285 123.274 284.283 106.219 266.221C81.5353 240.084 31.5168 237.462 35.0358 189.576C38.2036 146.477 97.1264 101.015 126.999 73.9866C148.241 54.7649 166.204 31.8564 190.519 16.4601C201.427 9.55376 217.635 1.49641 230.529 0.284783V0.293438Z" fill="#E7FBE4"/>
<path d="M317.279 200.518C317.757 201.046 318.961 201.359 319.612 202.002C323.751 206.1 326.084 214.179 329.102 219.043C332.185 217.666 335.392 216.438 338.434 214.971C343.15 212.695 350.422 206.347 354.651 212.374C358.097 217.279 353.101 221.632 350.785 225.969C345.121 236.587 339.589 251.938 335.244 263.464C334.032 266.688 329.934 276.878 329.753 279.582C329.712 280.167 329.753 280.563 329.934 281.124C330.454 282.781 336.901 287.653 338.657 289.945C346.827 300.597 348.006 315.412 342.713 327.556C337.989 338.414 330.817 344.952 318.31 341.753C307.823 339.074 301.524 324.085 299.62 314.365C290.864 319.073 282.199 324.176 271.828 321.711C255.52 317.828 248.875 296.401 258.084 282.946C263.674 274.784 272.281 271.255 281.87 270.324C288.251 269.705 288.292 272.179 291.606 265.674C295.646 257.751 302.769 241.831 304.814 233.488C305.391 231.121 304.467 228.895 306.834 226.966C310.065 224.336 314.938 226.974 315.63 230.759C316.034 232.976 314.006 238.558 313.24 241.006C310.552 249.572 302.093 274.47 295.357 279.302C288.671 284.1 278.201 278.972 269.75 286.507C261.118 294.199 265.579 311.224 277.385 311.216C287.336 311.208 302.959 293.713 309.604 308.668C312.671 315.577 312.168 321.892 317.832 328.307C322.111 333.146 327.321 331.761 330.569 326.649C335.401 319.048 335.912 310.185 332.531 301.933C327.337 289.269 314.806 291.635 319.744 273.58C323.479 259.927 330.586 245.244 336.579 232.432C336.868 231.822 338.484 227.824 338.294 227.634C333.579 228.508 329.943 233.916 324.79 232.366C322.135 231.575 320.618 228.277 319.481 225.993C310.964 208.894 301.104 195.011 294.492 176.378C275.093 121.743 290.188 50.2719 348.979 28.2016C389.682 12.9247 421.983 33.0988 430.764 74.2961C443.411 133.681 414.654 183.568 375.394 224.946C373.383 227.065 369.318 231.583 366.721 232.465C357.875 235.45 356.638 220.082 362.104 218.4C363.58 217.947 365.097 218.615 366.424 217.774C403.475 180.369 430.887 132.51 419.988 77.8824C413.294 44.3441 389.772 26.3218 355.492 37.8558C300.123 56.4882 287.682 123.631 305.49 173.485C307.188 178.242 314.682 197.624 317.321 200.535L317.279 200.518Z" fill="#0E6160"/>
<path d="M324.664 85.253C328.267 84.6676 332.034 87.3141 331.499 91.1807C330.88 95.6162 324.821 94.4702 323.625 100.406C322.669 105.188 325.439 104.957 326.024 107.488C327.615 114.347 318.547 117.513 314.787 111.083C311.679 105.773 312.388 97.9411 315.595 92.8296C317.211 90.2573 321.581 85.7559 324.656 85.253H324.664Z" fill="#0E6160"/>
<path d="M345.37 56.9259C348.783 56.6621 351.759 59.7537 351.124 63.1339C350.259 67.7673 344.281 67.553 342.748 71.8648C341.363 75.7644 343.68 75.2615 344.092 77.7513C345.106 83.8604 338.486 85.8226 334.66 81.7911C330.695 77.6194 331.684 69.8861 334.314 65.228C336.095 62.0704 341.709 57.198 345.37 56.9177V56.9259Z" fill="#0E6160"/>
<path d="M132.85 95.4864C154.162 87.8768 178.367 93.2027 188.071 115.1C195.441 131.729 190.643 147.311 182.522 162.464C178.804 169.398 174.121 177.898 166.776 181.327C165.786 182.951 168.103 187.379 168.87 189.135C177.732 209.54 192.292 235.007 207.47 251.215C210.982 254.966 217.363 257.588 214.387 263.978C212.326 268.405 205.928 267.819 201.699 268.825C187.683 272.164 174.163 275.421 166.322 288.735C164.129 292.462 162.505 298.316 160.197 301.49C158.012 304.482 153.51 304.433 151.276 301.556C148.671 298.2 149.825 292.907 149.471 288.983C148.473 278.067 142.875 268.471 135.983 260.226C133.064 256.739 124.251 248.124 120.475 246.062C118.496 244.991 117.012 245.37 115.297 243.597C111.307 239.483 113.591 232.781 119.601 233.448L149.025 239.755C144.549 232.237 138.877 224.676 135.645 216.506C133.93 212.178 130.385 203.785 135.678 201.015C143.254 197.041 144.705 208.715 146.569 213.225C152.653 227.9 163.379 237.801 171.417 250.399C173.289 253.326 174.525 257.093 171.689 259.946C167.311 264.349 162.233 258.569 158.704 256.376C153.659 253.227 148.259 250.852 142.281 250.102C149.231 258.726 156.165 267.902 158.919 278.859C163.651 273.747 168.903 268.932 175.086 265.593C182.358 261.669 190.544 260.193 198.467 258.182C186.068 244.29 176.141 228.452 167.666 211.906C161.771 200.405 157.806 190.421 153.741 178.194C152.892 175.647 151.078 175.136 153.139 171.739C155.769 167.419 159.9 170.964 162.629 170.478C166.19 169.843 174.031 154.681 175.622 151.078C181.904 136.873 183.347 120.459 170.156 109.65C162.076 103.03 146.181 101.34 137.022 106.196C134.82 107.367 136.197 107.853 136.024 109.65C135.216 118.167 132.52 128.728 126.106 134.829C115.734 144.697 102.997 137.434 106.08 123.344C108.15 113.896 115.223 106.41 122.759 100.886C121.72 94.9258 117.326 89.3938 112.016 86.434C99.0807 79.2119 80.9183 84.983 69.7636 93.3264C62.2364 98.9573 57.3475 107.672 56.4241 117.07C64.0749 116.938 72.6326 117.812 79.3189 121.827C91.6443 129.239 90.556 144.813 77.1011 150.097C62.3271 155.901 50.1831 142.677 46.2835 129.643C26.8431 133.708 5.63028 149.059 12.9348 171.566C16.7932 183.438 29.4401 191.616 40.8339 195.219C48.6744 183.842 64.9818 172.951 79.0633 179.151C87.0356 182.663 90.1108 191.443 85.5681 199.003C80.4071 207.586 64.9488 210.133 55.7398 209.663C54.0167 209.573 48.8887 208.402 47.7345 208.798C45.525 209.556 45.492 221.741 45.8465 224.05C47.281 233.259 56.6879 240.629 65.6991 241.503C74.8751 242.394 84.9086 236.738 92.3533 231.857C95.6016 229.722 102.51 223.159 105.981 223.671C109.106 224.124 110.623 227.479 109.716 230.349C108.43 234.463 90.1932 246.005 85.7412 248.173C71.0909 255.313 54.9896 254.472 43.1506 242.476C33.315 232.509 32.8286 218.559 36.1593 205.648C12.7699 197.676 -6.41482 176.521 2.36548 150.427C7.02358 136.585 20.1075 126.642 33.3892 121.679C37.1322 120.277 41.0236 119.568 44.783 118.241C45.492 111.176 47.314 104.399 50.8014 98.1906C61.1069 79.8055 88.2558 67.9006 108.76 73.0616C119.651 75.7987 129.865 84.5296 132.85 95.4946V95.4864ZM117.111 127.392C121.003 124.531 122.874 119.403 123.847 114.811C120.285 117.928 117.35 122.561 117.111 127.392ZM58.2214 128.299C58.6336 133.056 65.3198 140.353 70.1346 140.344C72.6079 140.344 77.1093 137.797 76.5817 134.919C75.6336 129.75 62.5167 128.068 58.2214 128.299ZM53.2747 197.948C59.2519 198.723 70.1346 198.319 74.8586 194.139C77.266 192.012 76.1365 189.44 73.251 188.986C65.831 187.816 57.7597 192.259 53.2747 197.948Z" fill="#0E6160"/>
<path d="M124.299 172.785C123.392 164.285 133.558 163.188 134.588 171.713C136.402 186.718 120.482 187.996 113.582 176.981C111.042 172.925 109.707 164.598 116.104 163.881C123.063 163.098 119.74 171.292 124.299 172.785Z" fill="#0E6160"/>
<path d="M95.1557 169.57C95.2134 169.669 97.1096 170.518 97.3404 170.337C98.676 166.627 99.9374 163.263 104.653 164.343C109.971 165.563 107.902 174.45 105.618 177.699C98.4947 187.806 79.4665 174.706 84.3555 165.876C86.6392 161.754 93.4326 161.762 94.7764 166.569C95.0238 167.467 94.9661 169.265 95.1557 169.562V169.57Z" fill="#0E6160"/>
<path d="M99.4713 184.564C100.964 184.317 102.431 184.638 103.61 185.611C105.49 187.169 105.012 191.259 108.375 191.217C109.694 191.201 109.686 187.681 112.151 186.922C119.876 184.539 121.311 194.82 116.851 199.256C109.464 206.602 92.9417 197.417 95.3079 188.505C95.7778 186.749 97.6658 184.869 99.4795 184.572L99.4713 184.564Z" fill="#0E6160"/>
<path d="M339.071 100.968C341.899 100.712 344.891 103.12 344.933 106.038C345.007 110.663 338.222 111.834 340.357 118.784C340.819 120.301 342.534 121.356 342.748 123.17C343.185 126.872 340.192 129.131 336.68 128.76C330.744 128.133 329.318 118.388 329.73 113.697C330.142 109.006 333.869 101.438 339.071 100.976V100.968Z" fill="#0E6160"/>
</svg>
