<svg width="334" height="302" viewBox="0 0 334 302" fill="none" xmlns="http://www.w3.org/2000/svg">
<path d="M321.815 123.188C324.315 126.174 322.529 130.354 318.621 130.476C315.334 130.576 308.089 125.024 304.517 123.538C281.61 114.028 256.231 124.474 241.32 142.736C230.074 156.498 226.423 162.278 210.018 171.03C187.611 182.977 163.876 181.526 146.449 202.504C133.881 217.637 130.166 238.507 128.344 257.627C127.465 266.872 127.108 276.261 128.344 285.471C130.816 285.535 133.045 284.935 135.56 285.071C141.569 285.399 147.8 288.979 153.659 290.344C177.944 296.002 199.272 283.763 214.419 265.794C218.549 260.892 221.65 254.962 225.737 250.239C232.231 242.744 239.083 242.844 247.743 239.915C277.087 229.983 311.369 211.085 320.879 179.447C322.915 172.666 323.501 165.572 323.501 158.512L320.786 161.835C299.372 187.714 263.948 194.987 238.619 214.443C218.892 229.597 205.209 249.532 184.939 263.993C175.229 270.924 160.868 280.405 148.779 281.591C145.478 281.913 140.655 281.62 140.819 277.147C141.012 271.874 150.501 271.338 154.43 270.102C162.99 267.408 171.821 261.407 179.095 256.205C198.593 242.28 212.083 223.024 230.988 207.991C257.21 187.142 291.606 180.533 315.127 154.233C317.592 151.482 320.457 146.473 322.851 144.237C326.009 141.286 332.611 143.937 333.211 147.824C333.811 151.71 333.447 160.67 333.232 164.936C330.824 212.164 286.469 237.671 246.364 250.625C241.413 252.225 237.14 252.032 233.353 256.312C229.566 260.592 226.458 266.615 222.593 271.259C205.066 292.294 180.409 306.312 152.165 300.018C146.799 298.825 140.14 295.238 135.096 294.873C130.516 294.545 125.793 297.746 121.849 293.909C117.141 289.336 117.512 272.581 117.798 266.187C119.163 235.285 126.451 200.053 154.466 182.498C170.313 172.566 188.19 171.495 204.559 162.864C219.928 154.761 222.7 150.224 233.139 137.299C243.72 124.188 256.196 115.714 272.779 111.892C291.77 107.512 306.246 112.463 321.815 123.209V123.188Z" fill="#FF7872"/>
<path d="M98.6446 46.8317C102.767 46.4673 113.928 45.8958 115.292 50.9829C116.478 55.4057 115.864 62.9007 114.971 67.4377C111.198 86.5576 94.7649 100.076 75.495 101.583C67.4569 102.212 63.4057 102.441 62.1482 93.6025C58.9759 71.2103 75.9165 48.8466 98.6446 46.8317ZM71.8439 91.8948C90.0849 91.7805 105.318 78.791 106.118 60.1499C106.168 58.9638 106.461 57.2633 105.539 56.456H99.6949C87.477 56.456 71.8439 71.6389 71.8439 83.9139V91.902V91.8948Z" fill="#FF7872"/>
<path d="M100.988 97.0759C105.111 96.7115 116.271 96.1399 117.636 101.227C118.822 105.65 118.208 113.145 117.314 117.682C113.542 136.802 97.1086 150.32 77.8387 151.828C69.8007 152.456 65.7495 152.685 64.492 143.847C61.3196 121.454 78.2603 99.0908 100.988 97.0759ZM74.1805 142.139C92.4215 142.025 107.655 129.035 108.455 110.394C108.505 109.208 108.798 107.507 107.876 106.7H102.031C89.8136 106.7 74.1805 121.883 74.1805 134.158V142.146V142.139Z" fill="#FF7872"/>
<path d="M104.488 146.541C108.611 146.176 119.771 145.605 121.136 150.692C122.322 155.115 121.708 162.61 120.814 167.147C117.042 186.267 100.609 199.785 81.3387 201.292C73.3007 201.921 69.2495 202.15 67.992 193.311C64.8196 170.919 81.7603 148.556 104.488 146.541ZM77.6877 191.611C95.9287 191.497 111.162 178.507 111.962 159.866C112.012 158.68 112.305 156.979 111.383 156.172H105.539C93.3208 156.172 77.6877 171.355 77.6877 183.63V191.618V191.611Z" fill="#FF7872"/>
<path d="M18.3513 54.6549C40.1004 54.3263 59.0059 71.9171 60.1634 93.6591C60.4135 98.3247 60.342 102.033 55.1191 103.412C31.9552 109.514 7.75533 95.7097 1.84647 72.5101C0.981932 69.1234 -0.697127 61.3783 1.92506 58.799C4.54725 56.2197 14.6859 54.7192 18.3513 54.6621V54.6549ZM10.7276 65.4509C11.9565 85.0566 31.3836 98.1175 50.2605 94.2521C49.2602 74.4392 30.0118 60.3494 10.7276 65.4509Z" fill="#FF7872"/>
<path d="M21.07 104.899C42.8192 104.57 61.7247 122.161 62.8822 143.903C63.1322 148.569 63.0608 152.277 57.8378 153.656C34.674 159.758 10.4741 145.954 4.56522 122.754C3.70068 119.368 2.02162 111.622 4.64381 109.043C7.266 106.464 17.4047 104.963 21.07 104.906V104.899ZM13.4535 115.695C14.6824 135.301 34.1095 148.362 52.9864 144.496C51.9861 124.683 32.7377 110.594 13.4535 115.695Z" fill="#FF7872"/>
<path d="M24.5778 153.585C46.327 153.256 65.2325 170.847 66.39 192.589C66.64 197.254 66.5686 200.963 61.3456 202.342C38.1818 208.443 13.9819 194.639 8.07303 171.44C7.20849 168.053 5.52944 160.308 8.15163 157.729C10.7738 155.149 20.9125 153.649 24.5778 153.592V153.585ZM16.9613 164.381C18.1903 183.986 37.6173 197.047 56.4942 193.182C55.4939 173.369 36.2455 159.279 16.9613 164.381Z" fill="#FF7872"/>
<path d="M52.6685 0.446981C55.9552 -0.00315023 63.5145 5.71994 66.0081 7.96345C84.2491 24.3468 80.941 50.583 62.7 65.4301C60.3708 67.3236 58.6631 68.4024 55.748 66.9091C38.8931 58.2781 30.0548 36.5646 37.6213 18.9309C40.5865 12.0146 44.3947 9.75683 48.4816 4.46958C49.7963 2.76908 49.4105 0.897111 52.6685 0.454125V0.446981ZM54.9549 12.1147C42.5656 22.4034 41.008 38.7795 51.7754 51.0117C53.4116 52.8694 55.7694 55.1629 57.9987 56.0917C58.8203 56.0203 62.7429 50.8545 63.436 49.8042C72.4814 36.1216 68.8732 20.3313 54.9549 12.1218V12.1147Z" fill="#FF7872"/>
<path d="M274.285 136.823C276.322 139.067 275.907 142.747 273.221 144.254C271.063 145.462 268.627 144.254 266.083 144.526C263.539 144.797 259.788 146.576 259.324 149.449C259.231 150.02 259.524 150.649 259.381 151.421C258.588 155.665 253.601 156.251 251.257 152.642C248.435 148.305 252.722 141.389 256.373 138.71C260.339 135.795 270.499 132.658 274.285 136.831V136.823Z" fill="#FF7872"/>
<path d="M227.191 177.298C230.042 176.905 234.551 177.04 236.416 179.555C238.073 181.792 237.837 184.743 235.444 186.329C232.064 188.572 229.935 185.25 226.534 187.158C222.426 189.465 223.062 196.053 219.275 196.646C214.423 197.411 213.166 192.566 214.516 188.772C216.403 183.464 221.39 178.091 227.191 177.298Z" fill="#FF7872"/>
<path d="M172.676 200.284C179.771 199.891 178.835 209.072 174.405 210.208C172.111 210.794 169.918 209.315 167.867 211.073C164.566 213.902 167.067 218.453 163.923 220.368C159.858 222.84 156.528 218.968 156.814 214.838C157.421 206.014 164.238 200.755 172.676 200.284Z" fill="#FF7872"/>
<path d="M138.592 257.3C136.413 255.056 137.335 250.998 140.4 250.212C142.722 249.619 143.465 250.655 145.83 249.019C148.595 247.104 148.424 243.439 150.56 242.06C153.211 240.352 157.219 241.903 157.569 245.153C158.441 253.256 144.58 263.459 138.6 257.293L138.592 257.3Z" fill="#FF7872"/>
<path d="M201.826 209.659C203.569 209.616 205.891 211.06 206.227 212.853C207.592 220.162 196.338 231.823 188.908 227.057C185.971 225.171 185.993 220.705 189.422 219.383C191.523 218.569 192.509 219.998 194.531 218.262C197.517 215.697 196.76 209.795 201.826 209.659Z" fill="#FF7872"/>
<path d="M294.584 149.226C295.656 149.025 297.006 149.433 297.935 149.99C303.265 153.212 296.277 161.979 292.612 164.023C288.318 166.423 279.894 167.531 281.073 160.272C281.673 156.571 285.746 157.799 288.046 156.342C290.611 154.713 290.997 149.897 294.591 149.226H294.584Z" fill="#FF7872"/>
</svg>
