<svg width="400" height="368" viewBox="0 0 400 368" fill="none" xmlns="http://www.w3.org/2000/svg">
<path d="M195.816 0.244013C233.574 -1.813 262.555 20.6922 285.837 47.4639C295.695 58.8003 302.026 69.992 316.083 77.0315C331.259 84.6272 350.671 86.8061 363.523 98.1273C395.506 126.308 381.404 163.243 374.235 198.563C368.14 228.588 372.696 259.146 371.218 289.407C369.062 333.434 336.477 365.478 292.503 367.276C264.368 368.426 223.327 352.107 198.117 339.506C188.357 334.63 181.455 329.838 170.659 326.265C136.604 314.982 97.4145 308.613 62.232 300.111C40.3667 294.823 18.989 282.299 9.32865 261.218C-2.31251 235.825 -3.84385 205.686 10.8905 181.231C23.3697 160.523 40.839 148.73 56.7695 131.58C89.3769 96.4589 100.317 46.3363 140.117 17.6448C154.257 7.45117 178.507 1.18871 195.824 0.244013H195.816Z" fill="#FFE4E3"/>
<path d="M387.494 159.871C389.995 162.858 388.209 167.038 384.301 167.159C381.014 167.259 373.769 161.708 370.196 160.222C347.29 150.712 321.911 161.158 306.999 179.42C295.753 193.181 292.102 198.961 275.698 207.714C253.291 219.66 229.556 218.21 212.129 239.187C199.561 254.32 195.846 275.191 194.024 294.31C193.145 303.556 192.788 312.944 194.024 322.154C196.496 322.219 198.725 321.618 201.24 321.754C207.249 322.083 213.479 325.662 219.338 327.027C243.624 332.686 264.952 320.447 280.099 302.477C284.229 297.576 287.329 291.645 291.416 286.923C297.911 279.428 304.763 279.528 313.423 276.598C342.767 266.667 377.048 247.768 386.558 216.131C388.595 209.35 389.18 202.255 389.18 195.196L386.465 198.518C365.052 224.397 329.627 231.671 304.299 251.126C284.572 266.281 270.889 286.215 250.619 300.677C240.909 307.607 226.548 317.089 214.458 318.275C211.157 318.596 206.334 318.303 206.499 313.83C206.692 308.557 216.18 308.022 220.11 306.786C228.67 304.092 237.501 298.09 244.774 292.889C264.273 278.963 277.762 259.708 296.668 244.675C322.89 223.826 357.286 217.217 380.807 190.916C383.272 188.165 386.137 183.157 388.53 180.92C391.688 177.97 398.29 180.62 398.89 184.507C399.491 188.394 399.126 197.354 398.912 201.619C396.504 248.847 352.148 274.355 312.044 287.308C307.092 288.909 302.82 288.716 299.033 292.996C295.246 297.276 292.138 303.299 288.273 307.943C270.746 328.978 246.089 342.996 217.845 336.701C212.479 335.508 205.82 331.921 200.776 331.557C196.196 331.228 191.473 334.429 187.529 330.592C182.821 326.02 183.192 309.265 183.478 302.87C184.843 271.968 192.13 236.737 220.146 219.182C235.993 209.25 253.87 208.178 270.239 199.547C285.608 191.445 288.38 186.908 298.819 173.983C309.4 160.872 321.875 152.398 338.459 148.575C357.45 144.195 371.925 149.147 387.494 159.893V159.871Z" fill="#FF7872"/>
<path d="M164.324 83.5153C168.447 83.1509 179.607 82.5793 180.972 87.6665C182.158 92.0893 181.544 99.5843 180.65 104.121C176.878 123.241 160.445 136.759 141.175 138.267C133.137 138.896 129.085 139.124 127.828 130.286C124.656 107.894 141.596 85.5302 164.324 83.5153ZM137.524 128.578C155.765 128.464 170.998 115.475 171.798 96.8335C171.848 95.6474 172.141 93.9469 171.219 93.1396H165.375C153.157 93.1396 137.524 108.323 137.524 120.598V128.586V128.578Z" fill="#FF7872"/>
<path d="M166.668 133.759C170.791 133.395 181.951 132.823 183.316 137.911C184.502 142.333 183.887 149.828 182.994 154.365C179.222 173.485 162.788 187.004 143.518 188.511C135.48 189.14 131.429 189.368 130.172 180.53C126.999 158.138 143.94 135.774 166.668 133.759ZM139.86 178.823C158.101 178.708 173.334 165.719 174.134 147.078C174.184 145.892 174.477 144.191 173.556 143.384H167.711C155.493 143.384 139.86 158.567 139.86 170.842V178.83V178.823Z" fill="#FF7872"/>
<path d="M170.168 183.224C174.291 182.86 185.451 182.288 186.816 187.376C188.002 191.798 187.387 199.293 186.494 203.83C182.722 222.95 166.288 236.468 147.018 237.976C138.98 238.605 134.929 238.833 133.672 229.995C130.499 207.603 147.44 185.239 170.168 183.224ZM143.367 228.295C161.608 228.18 176.841 215.191 177.642 196.55C177.692 195.364 177.985 193.663 177.063 192.856H171.218C159 192.856 143.367 208.039 143.367 220.314V228.302V228.295Z" fill="#FF7872"/>
<path d="M84.0309 91.3385C105.78 91.0098 124.686 108.601 125.843 130.343C126.093 135.008 126.022 138.717 120.799 140.096C97.6349 146.197 73.435 132.393 67.5262 109.194C66.6616 105.807 64.9826 98.0619 67.6048 95.4826C70.2269 92.9033 80.3656 91.4028 84.0309 91.3457V91.3385ZM76.4073 102.135C77.6362 121.74 97.0633 134.801 115.94 130.936C114.94 111.123 95.6915 97.033 76.4073 102.135Z" fill="#FF7872"/>
<path d="M86.7497 141.583C108.499 141.254 127.404 158.845 128.562 180.587C128.812 185.252 128.74 188.961 123.518 190.34C100.354 196.441 76.1538 182.637 70.2449 159.438C69.3804 156.051 67.7013 148.306 70.3235 145.727C72.9457 143.147 83.0844 141.647 86.7497 141.59V141.583ZM79.1332 152.379C80.3621 171.984 99.7892 185.045 118.666 181.18C117.666 161.367 98.4174 147.277 79.1332 152.379Z" fill="#FF7872"/>
<path d="M90.2575 190.268C112.007 189.94 130.912 207.53 132.07 229.272C132.32 233.938 132.248 237.646 127.025 239.025C103.861 245.127 79.6616 231.323 73.7527 208.123C72.8882 204.737 71.2091 196.992 73.8313 194.412C76.4535 191.833 86.5922 190.333 90.2575 190.275V190.268ZM82.641 201.064C83.8699 220.67 103.297 233.731 122.174 229.865C121.174 210.053 101.925 195.963 82.641 201.064Z" fill="#FF7872"/>
<path d="M118.348 37.1306C121.635 36.6804 129.194 42.4035 131.688 44.647C149.929 61.0304 146.621 87.2666 128.38 102.114C126.05 104.007 124.343 105.086 121.428 103.593C104.573 94.9617 95.7345 73.2482 103.301 55.6145C106.266 48.6982 110.074 46.4404 114.161 41.1532C115.476 39.4527 115.09 37.5807 118.348 37.1377V37.1306ZM120.635 48.7983C108.245 59.087 106.688 75.4631 117.455 87.6953C119.091 89.5529 121.449 91.8465 123.678 92.7753C124.5 92.7039 128.423 87.5381 129.116 86.4878C138.161 72.8052 134.553 57.0149 120.635 48.8054V48.7983Z" fill="#FF7872"/>
<path d="M339.965 173.507C342.001 175.751 341.587 179.43 338.901 180.938C336.743 182.145 334.306 180.938 331.763 181.209C329.219 181.481 325.468 183.26 325.004 186.132C324.911 186.704 325.204 187.332 325.061 188.104C324.268 192.348 319.281 192.934 316.937 189.326C314.115 184.989 318.402 178.073 322.053 175.393C326.018 172.478 336.178 169.342 339.965 173.514V173.507Z" fill="#FF7872"/>
<path d="M292.871 213.981C295.722 213.588 300.23 213.724 302.095 216.239C303.753 218.475 303.517 221.426 301.123 223.012C297.744 225.256 295.615 221.934 292.214 223.841C288.105 226.149 288.741 232.737 284.954 233.33C280.103 234.094 278.846 229.25 280.196 225.456C282.082 220.147 287.069 214.774 292.871 213.981Z" fill="#FF7872"/>
<path d="M238.355 236.967C245.45 236.574 244.514 245.756 240.085 246.892C237.791 247.478 235.597 245.999 233.547 247.756C230.246 250.586 232.747 255.137 229.603 257.052C225.537 259.524 222.208 255.651 222.494 251.522C223.101 242.698 229.917 237.439 238.355 236.967Z" fill="#FF7872"/>
<path d="M204.272 293.983C202.093 291.74 203.015 287.682 206.08 286.896C208.402 286.303 209.145 287.339 211.51 285.702C214.275 283.788 214.103 280.122 216.24 278.743C218.891 277.036 222.899 278.586 223.249 281.837C224.121 289.939 210.26 300.142 204.279 293.976L204.272 293.983Z" fill="#FF7872"/>
<path d="M267.505 246.343C269.249 246.3 271.571 247.743 271.907 249.537C273.271 256.846 262.018 268.506 254.587 263.741C251.651 261.854 251.672 257.389 255.102 256.067C257.202 255.252 258.188 256.681 260.21 254.945C263.197 252.38 262.44 246.478 267.505 246.343Z" fill="#FF7872"/>
<path d="M360.264 185.909C361.335 185.709 362.686 186.116 363.615 186.674C368.945 189.896 361.957 198.663 358.292 200.706C353.998 203.107 345.574 204.214 346.753 196.955C347.353 193.254 351.425 194.483 353.726 193.025C356.291 191.396 356.677 186.581 360.271 185.909H360.264Z" fill="#FF7872"/>
</svg>
