<svg width="442" height="250" viewBox="0 0 442 250" fill="none" xmlns="http://www.w3.org/2000/svg">
<path d="M110.913 203.258C102.984 203.197 96.1069 200.762 89.2147 197.131C87.6949 196.33 83.412 194.117 82.4944 192.936C82.1612 192.506 82.235 191.853 81.7712 191.608C80.6283 191.001 77.8615 190.78 76.4302 190.354C68.6469 188.035 58.1171 178.486 54.5695 171.262C49.4609 160.862 48.7892 152.668 51.3017 141.366C52.0786 137.864 53.2436 134.481 54.6961 131.213C49.2028 126.847 42.9934 123.651 39.7525 117.117C30.2109 97.8694 38.6101 74.4705 56.7686 63.9309C57.499 63.5091 61.0517 61.9559 61.1934 61.7526C61.4651 61.3689 61.5052 60.2009 61.9028 59.4596C69.4086 45.5433 83.7325 31.2121 99.0594 26.216C100.701 25.6791 103.117 25.4508 104.588 24.7706C105.266 24.4544 105.645 23.8788 106.239 23.5939C107.263 23.101 115.032 23.3536 116.922 23.3969C142.839 23.9667 168.824 23.653 194.763 24.1863C217.251 24.6464 239.802 25.3938 262.309 25.9176C300.323 26.8007 338.568 26.7518 376.399 30.5121C379.181 30.7876 382.101 30.4342 384.49 30.6482C389.129 31.0647 400.524 34.3935 404.951 36.2648C430.241 46.961 432.484 84.0053 433.346 107.586C434.236 131.923 434.598 152.77 418.205 172.47C406.97 185.974 394.762 189.156 377.667 190.074C358.193 191.118 338.189 189.958 318.63 190.13C260.849 190.63 204.156 196.997 146.714 201.255C139.83 201.764 131.904 201.561 125.252 202.396C121.274 202.895 115.584 208.281 111.299 210.112C99.3027 215.234 94.7549 208.906 84.5461 206.126C76.0861 203.817 70.0619 211.881 62.9302 215.358C49.5611 221.881 33.3071 217.897 36.1468 200.273C36.594 197.504 39.3043 190.028 37.1704 187.856C35.5404 186.194 27.7376 186.976 25.1236 186.705C21.1647 186.293 15.7919 184.443 13.0007 181.532C4.30524 172.463 16.4518 160.837 20.204 152.483C24.4624 143.004 19.3709 141.116 14.3225 134.469C5.42209 122.747 6.26158 112.534 15.2042 101.099C17.201 98.5459 25.2525 90.2594 28.2478 90.0413C30.5341 89.8739 32.1194 91.7276 31.3115 93.9358C30.7275 95.5316 24.3051 100.675 22.6308 102.466C17.6029 107.845 13.1621 114.86 15.1228 122.488C17.3223 131.043 28.1693 136.912 28.405 145.447C28.6482 154.178 22.8058 160.183 18.9831 167.259C17.0659 170.809 14.6576 175.36 19.0695 178.095C27.2279 183.152 44.483 175.334 44.5026 190.812C44.513 198.83 36.7136 211.326 50.722 211.78C62.3158 212.156 68.9333 200.379 79.0831 199.162C90.3712 197.806 99.7437 210.476 110.898 203.266L110.913 203.258ZM139.212 30.4764C150.481 35.8887 160.944 44.4034 169.851 53.1133C183.116 66.0791 192.813 81.5675 204.998 95.4087C233.518 127.794 268.972 152.244 313.823 153.756C358.592 155.266 403.675 121.886 411.066 77.0512C413.653 61.3611 410.787 44.0342 393.091 39.5237C381.699 36.6206 368.14 36.3572 356.385 35.6135C315.326 33.0129 274.221 32.6889 233.058 31.8055C202.431 31.1479 171.853 29.8633 141.197 30.126L139.207 30.476L139.212 30.4764ZM112.24 30.3825C90.2785 30.8414 75.0911 50.283 76.1963 71.4692C76.8686 84.3576 87.1229 88.3129 97.9855 91.5877C110.71 95.4196 128.896 94.4682 139.786 86.1752C148.781 79.3302 147.456 65.0198 143.779 55.6142C139.739 45.2746 136.298 36.8353 124.883 33.0602C122.042 32.1199 115.039 30.3249 112.24 30.3825ZM153.506 194.044C207.446 189.761 261.327 184.235 315.521 183.616C330.243 183.446 344.951 183.968 359.667 183.917C376.02 183.86 396.134 184.843 408.795 173.031C429.551 153.677 427.808 127.384 426.521 101.321C425.777 86.3036 423.909 71.3215 417.936 57.4354C417.461 57.3335 417.688 57.9453 417.728 58.2116C418.161 60.9969 418.814 63.5711 418.762 66.4832C418.153 100.779 394.694 132.686 364.868 147.973C338.668 161.403 312.471 163.444 283.938 155.871C259.949 149.505 238.49 136.567 220.189 120.134C213.389 132.255 205.12 143.492 196.254 154.177C188.05 164.067 178.7 174.176 169.093 182.715C164.272 187.002 159.105 190.835 153.501 194.043L153.506 194.044ZM145.72 190.261C154.604 186.988 161.837 180.579 168.631 174.2C180.19 163.348 191.465 150.507 200.923 137.782C206.109 130.8 211.256 123.313 214.916 115.424C212.045 112.148 208.781 109.222 205.817 106.029C190.671 89.7073 179.082 70.9149 162.964 55.5591L152.731 46.9871L156.99 54.8206C170.324 84.4492 169.919 119.909 162.28 151.079C158.947 164.684 153.94 178.867 145.715 190.261L145.72 190.261ZM147.986 100.539C149.899 97.8353 152.882 95.2495 155.802 93.6865C157.208 92.9338 158.733 92.5258 160.141 91.7973C159.08 81.4295 156.774 71.1727 152.686 61.5797L153.056 71.3734C152.678 79.6799 150.243 86.7244 143.291 91.6747C145.09 94.3448 146.521 97.2516 147.471 100.338L147.991 100.54L147.986 100.539ZM69.2624 60.596L70.5807 60.0225L71.0958 57.3596C70.5233 57.4982 69.1215 60.3882 69.2624 60.596ZM69.8191 66.3798C63.9452 66.3955 59.0436 69.5189 54.856 73.333C43.8711 83.3345 39.3229 96.8526 44.4126 111.263C46.6761 117.677 53.0643 122.633 58.8131 126.064C61.0323 127.387 63.0037 127.604 65.4236 128.304C63.5017 123.138 63.2952 119.243 64.9244 113.919C66.1718 109.835 73.3979 97.0861 76.07 93.5086C76.9662 92.307 78.1267 91.3857 79.067 90.2308C71.4945 84.7593 68.913 75.3831 69.8187 66.3845L69.8191 66.3798ZM121.47 148.03C121.848 147.637 122.331 145.812 122.708 145.084C124.655 141.355 128.717 140.762 131.756 138.41C135.067 135.852 139.694 128.9 141.066 124.937C143.651 117.474 143.348 105.783 139.827 98.6427C139.397 97.77 138.141 95.1837 137.125 95.2374C136.263 95.2849 132.898 96.9973 131.7 97.3991C120.273 101.215 107.818 101.336 96.248 97.8633C93.2595 96.968 87.3949 94.0059 84.6253 94.219C83.5494 94.3012 81.9041 95.9183 81.2519 96.7817C78.7709 101.915 75.5954 106.755 73.0287 111.824C70.7137 116.406 69.6202 119.279 71.1192 124.343C74.9562 137.281 83.1721 151.513 97.954 153.437C101.795 153.935 112.383 150.976 116.558 149.786C117.525 149.508 120.925 148.587 121.46 148.034L121.47 148.03ZM160.688 98.7324C157.131 99.8168 153.822 102.586 151.594 105.497C148.407 109.668 149.484 111.173 149.319 115.897C149.081 122.532 147.28 128.482 143.759 134.069C139.968 140.082 136.041 142.326 134.961 150.138C133.913 157.743 135.542 168.479 143.397 171.89C144.378 172.316 146.458 173.126 147.433 172.806C148.932 172.314 150.804 166.317 151.388 164.674C157.894 146.371 161.035 126.343 161.044 106.971C161.047 104.237 160.747 101.463 160.688 98.7277L160.688 98.7324ZM60.0292 133.882C57.7235 139.727 56.3355 146.869 56.321 153.179C56.3089 158.37 59.0471 166.731 61.8482 171.13C63.984 174.483 72.687 181.856 76.3567 183.434C78.9576 184.551 87.3534 186.424 90.2229 186.678C94.5578 187.064 99.0867 182.093 100.578 178.417C101.665 175.735 101.779 168.984 101.72 165.9C101.707 165.263 100.974 160.727 100.777 160.443C100.386 159.894 97.5447 159.996 96.6422 159.839C82.7129 157.407 74.1468 148.052 68.3472 135.825L60.0339 133.882L60.0292 133.882ZM144.81 179.246C140.572 178.27 137.216 176.206 134.217 173.14C128.097 166.877 127.622 155.582 129.165 147.445C127.859 148.675 127.778 150.676 126.537 152.159C123.064 156.315 112.351 156.93 107.343 158.678C107.653 161.969 108.315 165.175 108.339 168.5C108.349 169.815 107.909 171.352 107.998 172.636C108.052 173.424 108.602 174.13 108.577 175.055C108.535 176.591 107.611 177.901 107.669 179.894C107.763 183.191 111.171 191.8 114.176 193.414C119.558 196.297 123.015 193.426 127.189 194.473C128.025 194.682 128.486 195.538 129.34 195.294C130.392 194.989 134.495 192.292 135.549 191.5C139.503 188.532 142.85 183.71 144.814 179.251L144.81 179.246ZM107.56 196.456C105.43 193.495 104.481 189.988 103.016 186.701C100.574 188.959 98.3539 192.062 94.8155 192.527C94.6401 193.191 94.8821 192.934 95.142 193.094C98.3498 195.093 103.842 195.858 107.56 196.451L107.56 196.456Z" fill="#0E6160"/>
<path d="M64.1469 186.62C66.8955 186.543 67.6856 189.306 66.2716 191.425C63.6792 195.311 57.4993 199.79 54.4273 203.621C51.6735 205.652 48.5574 202.499 50.3388 199.655C53.3719 196.577 55.8952 193.001 59.0755 190.054C60.1721 189.036 62.7148 186.662 64.1422 186.619L64.1469 186.62Z" fill="#0E6160"/>
<path d="M42.3068 163.447C44.9866 163.618 46.3334 166.317 44.529 168.347C43.6296 169.357 38.9573 170.137 37.3272 170.656C34.8353 171.447 29.4021 173.99 27.0908 173.252C24.7795 172.514 24.9486 169.344 26.9866 168.133C29.6356 166.552 39.3313 163.255 42.3068 163.447Z" fill="#0E6160"/>
<path d="M21.3066 117.367C23.4018 117.079 25.9364 117.84 27.9882 118.127C30.4666 118.473 37.5148 118.517 36.2558 122.738C35.4837 125.322 31.8469 124.784 29.8066 124.532C27.6333 124.265 23.1313 123.582 21.1636 122.92C18.2913 121.954 18.722 117.72 21.3118 117.363L21.3066 117.367Z" fill="#0E6160"/>
<path d="M329.566 106.678C332.145 106.745 332.908 109.424 332.277 111.527C330.867 116.238 320.354 118.983 316.044 118.475C312.555 118.059 306.753 114.404 305.273 111.177C303.83 108.021 307.276 105.345 309.959 107.711C310.472 108.165 310.61 108.75 311.068 109.181C312.469 110.488 314.591 112.052 316.544 112.258C318.497 112.465 324.567 110.682 326.048 109.305C327.057 108.371 327.633 106.631 329.566 106.678Z" fill="#0E6160"/>
<path d="M260.302 75.5813C263.543 75.116 263.124 77.4332 264.537 78.8852C266.687 81.0921 271.563 82.1739 274.464 81.1925C276.985 80.3371 279.27 76.9184 282.139 78.9559C286.402 81.9801 279.664 86.2552 276.914 87.211C271.3 89.1608 261.151 86.4095 258.511 80.8388C257.643 79.0069 257.934 75.9236 260.297 75.5856L260.302 75.5813Z" fill="#0E6160"/>
<path d="M345.63 77.4936C348.654 77.34 349.409 80.8598 347.983 83.1311C344.233 89.1046 327.058 88.8592 323.559 82.7674C322.107 80.2411 324.056 77.2294 327.134 78.3091C327.814 78.5477 328.352 79.5153 328.952 79.9002C332.311 82.0408 339.246 81.7839 342.517 79.5282C343.559 78.8122 344.057 77.5676 345.631 77.4889L345.63 77.4936Z" fill="#0E6160"/>
<path d="M385.631 102.218C390.158 101.568 390.16 106.641 387.598 109.367C383.409 113.822 376.17 114.627 370.891 111.661C368.697 110.431 366.933 107.563 369.875 106.097C372.171 104.955 373.638 106.904 375.776 107.303C377.994 107.718 381.34 106.922 382.812 105.142C383.601 104.185 384.073 102.446 385.636 102.218L385.631 102.218Z" fill="#0E6160"/>
<path d="M258.451 166.642C261.771 166.614 263.426 172.164 261.076 174.865C257.454 179.028 246.973 179.672 242.849 176.081C240.149 173.732 241.843 169.872 245.225 170.705C246.357 170.986 247.106 172.057 249.016 172.322C250.187 172.482 254.723 172.183 255.402 171.288C255.763 170.807 255.337 170.001 255.424 169.363C255.622 167.974 257.026 166.657 258.451 166.642Z" fill="#0E6160"/>
<path d="M225.789 150.885C228.815 150.87 230.273 154.587 228.335 157.016C224.559 161.749 213.779 163.052 209.258 158.701C207.403 156.916 207.341 153.927 209.93 152.953C212.519 151.979 212.954 154.569 214.458 155.039C216.435 155.658 220.589 155.111 222.206 153.774C223.344 152.836 223.511 150.895 225.784 150.884L225.789 150.885Z" fill="#0E6160"/>
<path d="M402.025 156.233C405.436 155.743 406.487 159.226 404.253 161.697C401.448 164.8 392.804 166.582 389.175 164.802C385.864 163.177 387.373 158.091 390.556 158.377C391.075 158.42 391.549 158.88 392.093 158.974C394.092 159.318 397.524 159.155 399.31 158.148C400.185 157.652 401.006 156.377 402.025 156.233Z" fill="#0E6160"/>
<path d="M105.719 42.3631C106.445 42.3951 111.012 44.7705 111.427 45.3694C112.559 47.0179 111.438 49.3672 109.461 49.5605C107.189 49.7817 103.029 48.387 102.714 45.7406C102.489 43.8955 103.814 42.2755 105.724 42.3634L105.719 42.3631Z" fill="#0E6160"/>
<path d="M94.6966 61.9947C96.0499 61.9214 96.2831 62.6868 96.9512 62.8382C97.3935 62.9374 97.8617 62.6705 98.6194 62.8964C102.341 64.0251 99.7645 69.7859 95.4382 68.7214C91.544 67.7648 90.656 62.2163 94.7014 61.9951L94.6966 61.9947Z" fill="#0E6160"/>
<path d="M121.94 64.5402C125.339 64.7049 125.872 68.6508 122.674 69.9802C120.951 70.6967 118.118 70.9763 116.73 69.5167C115.342 68.0572 115.889 65.0049 117.97 64.7199C118.673 64.6257 121.219 64.5039 121.935 64.5398L121.94 64.5402Z" fill="#0E6160"/>
<path d="M104.517 128.755C106.444 128.472 108.246 129.626 107.991 131.704C107.754 133.668 104.093 136.121 102.202 136.264C97.3676 136.629 96.3796 130.269 100.739 129.96C101.135 129.931 101.543 130.209 101.896 130.166C102.652 130.077 103.668 128.875 104.517 128.75L104.517 128.755Z" fill="#0E6160"/>
<path d="M80.4774 119.449C81.0146 119.446 81.7719 119.734 82.2055 120.053C82.9827 120.62 84.4365 123.127 85.2573 123.975C85.9144 130.565 77.6766 127.262 77.6669 122.676C77.6638 120.935 78.5874 119.463 80.4821 119.45L80.4774 119.449Z" fill="#0E6160"/>
<path d="M126.183 110.271C128.107 112.55 124.925 116.946 122.302 117.305C119.285 117.717 117.927 114.639 119.818 112.383C120.329 111.771 122.518 109.783 123.191 109.538C124.298 109.138 125.398 109.345 126.178 110.271L126.183 110.271Z" fill="#0E6160"/>
<path d="M93.1678 104.9C94.3687 104.929 96.9093 106.71 97.1222 107.947C97.904 112.473 91.5429 112.467 90.3973 108.565C89.8706 106.781 91.3072 104.85 93.1682 104.896L93.1678 104.9Z" fill="#0E6160"/>
<path d="M84.1193 166.66C85.4484 166.589 85.6459 167.38 86.3683 167.512C86.8877 167.608 87.4256 167.137 88.1155 167.257C91.6551 167.868 90.6242 172.974 87.5582 174.152C81.7882 176.366 79.0782 166.922 84.1142 166.664L84.1193 166.66Z" fill="#0E6160"/>
<path d="M74.3469 161.272C70.7394 164.284 66.5859 159.318 68.5986 155.484C69.4481 153.868 71.2838 153.185 72.9186 154.101C74.2421 154.842 73.7894 155.383 74.2765 156.322C75.1508 158.021 76.4548 159.512 74.3521 161.268L74.3469 161.272Z" fill="#0E6160"/>
<path d="M58.9238 92.9102C61.5759 92.955 66.9627 92.6309 65.9687 96.6642C65.3533 99.1515 61.173 99.0363 59.1108 99.1029C57.0487 99.1696 52.6811 99.2873 50.7495 98.9394C47.6654 98.3851 47.2732 94.3602 50.203 93.4338C51.8233 92.919 57.0136 92.8796 58.9238 92.9102Z" fill="#0E6160"/>
<path d="M62.6259 104.671C65.5887 104.383 67.0647 107.141 65.1798 109.388C64.1891 110.572 57.1471 114.755 55.538 115.366C51.9484 116.73 49.4436 114.006 51.7153 110.858C54.7035 109.75 59.6727 104.959 62.6259 104.671Z" fill="#0E6160"/>
<path d="M57.2912 77.9014C57.7114 77.8648 58.0906 77.8583 58.5092 77.9554C59.6624 78.2096 64.7066 82.3844 65.3977 83.4653C67.2161 86.3138 64.7841 89.199 61.8694 87.8796C61.0887 87.5275 56.1171 83.3444 55.5494 82.6229C54.1673 80.8626 54.9878 78.1009 57.2912 77.9014Z" fill="#0E6160"/>
<path d="M120.43 163.701C121.617 163.666 122.351 164.416 122.972 165.295C123.186 165.6 123.146 166.142 123.405 166.374C124.03 166.923 125.412 166.623 126.112 167.939C127.466 170.495 124.672 172.714 122.192 172.559C117.352 172.255 115.624 163.844 120.431 163.696L120.43 163.701Z" fill="#0E6160"/>
</svg>
