<svg width="470" height="436" viewBox="0 0 470 436" fill="none" xmlns="http://www.w3.org/2000/svg">
<path d="M238.147 434.874C193.465 437.39 159.117 410.816 131.505 379.181C119.813 365.785 112.296 352.553 95.6456 344.252C77.6681 335.295 54.6888 332.757 39.4534 319.386C1.54106 286.101 18.1521 242.358 26.5614 200.542C33.7106 164.994 28.2533 128.837 29.9379 93.0198C32.3956 40.9076 70.8916 2.9137 122.932 0.691818C156.229 -0.729809 204.836 18.4963 234.7 33.3561C246.261 39.106 254.44 44.7628 267.224 48.9685C307.553 62.2495 353.949 69.7038 395.606 79.6913C421.495 85.9022 446.823 100.68 458.301 125.609C472.133 155.636 474.01 191.303 456.624 220.278C441.898 244.812 421.248 258.808 402.431 279.138C363.914 320.775 351.074 380.119 304.032 414.161C287.318 426.256 258.631 433.719 238.138 434.874L238.147 434.874Z" fill="#F0FFEE"/>
<path d="M110.921 312.473C102.992 312.412 96.1147 309.977 89.2226 306.346C87.7027 305.545 83.4198 303.332 82.5022 302.151C82.169 301.721 82.2428 301.068 81.779 300.823C80.6361 300.216 77.8694 299.994 76.438 299.569C68.6548 297.25 58.1249 287.701 54.5773 280.477C49.4687 270.077 48.797 261.883 51.3095 250.581C52.0864 247.079 53.2514 243.696 54.7039 240.428C49.2106 236.062 43.0013 232.866 39.7603 226.332C30.2187 207.084 38.6179 183.685 56.7764 173.146C57.5068 172.724 61.0595 171.171 61.2012 170.967C61.4729 170.584 61.5131 169.416 61.9106 168.674C69.4164 154.758 83.7403 140.427 99.0672 135.431C100.708 134.894 103.125 134.666 104.596 133.985C105.274 133.669 105.653 133.094 106.247 132.809C107.271 132.316 115.04 132.568 116.93 132.612C142.847 133.182 168.832 132.868 194.771 133.401C217.259 133.861 239.81 134.609 262.317 135.132C300.331 136.016 338.576 135.967 376.407 139.727C379.189 140.002 382.109 139.649 384.498 139.863C389.137 140.28 400.532 143.608 404.958 145.48C430.249 156.176 432.492 193.22 433.354 216.8C434.244 241.138 434.606 261.985 418.212 281.684C406.978 295.189 394.77 298.37 377.675 299.289C358.201 300.333 338.197 299.173 318.637 299.345C260.857 299.845 204.164 306.212 146.722 310.469C139.838 310.979 131.912 310.775 125.26 311.611C121.282 312.11 115.592 317.496 111.306 319.327C99.3105 324.449 94.7627 318.121 84.5539 315.341C76.0939 313.032 70.0697 321.096 62.938 324.573C49.5689 331.095 33.3149 327.112 36.1546 309.487C36.6018 306.718 39.3121 299.243 37.1783 297.071C35.5482 295.409 27.7454 296.191 25.1314 295.92C21.1725 295.508 15.7997 293.658 13.0085 290.747C4.31305 281.677 16.4596 270.052 20.2118 261.698C24.4702 252.219 19.3788 250.331 14.3303 243.684C5.4299 231.962 6.26939 221.749 15.212 210.314C17.2089 207.761 25.2603 199.474 28.2556 199.256C30.5419 199.089 32.1272 200.942 31.3193 203.151C30.7353 204.746 24.3129 209.889 22.6387 211.681C17.6107 217.06 13.1699 224.075 15.1306 231.702C17.3301 240.258 28.1771 246.127 28.4128 254.662C28.656 263.393 22.8136 269.397 18.9909 276.474C17.0738 280.024 14.6655 284.575 19.0773 287.31C27.2357 292.367 44.4908 284.549 44.5104 300.026C44.5208 308.045 36.7214 320.541 50.7298 320.995C62.3236 321.371 68.9411 309.594 79.0909 308.377C90.379 307.021 99.7515 319.69 110.906 312.481L110.921 312.473ZM139.22 139.691C150.489 145.104 160.952 153.618 169.859 162.328C183.124 175.294 192.821 190.782 205.006 204.624C233.526 237.009 268.98 261.458 313.831 262.97C358.6 264.48 403.683 231.101 411.074 186.266C413.661 170.576 410.795 153.249 393.099 148.739C381.707 145.835 368.148 145.572 356.393 144.828C315.334 142.228 274.229 141.904 233.065 141.02C202.439 140.363 171.86 139.078 141.205 139.341L139.215 139.691L139.22 139.691ZM112.247 139.597C90.2863 140.056 75.0989 159.498 76.2041 180.684C76.8764 193.572 87.1308 197.528 97.9933 200.803C110.717 204.634 128.904 203.683 139.794 195.39C148.789 188.545 147.464 174.235 143.787 164.829C139.747 154.489 136.306 146.05 124.89 142.275C122.05 141.335 115.047 139.54 112.247 139.597ZM153.513 303.258C207.453 298.976 261.334 293.45 315.529 292.831C330.251 292.661 344.958 293.183 359.675 293.132C376.027 293.074 396.142 294.058 408.803 282.246C429.558 262.892 427.816 236.599 426.529 210.536C425.785 195.518 423.917 180.536 417.944 166.65C417.469 166.548 417.696 167.16 417.736 167.426C418.169 170.212 418.822 172.786 418.77 175.698C418.161 209.994 394.702 241.901 364.876 257.188C338.676 270.617 312.479 272.659 283.946 265.086C259.957 258.72 238.497 245.781 220.197 229.349C213.397 241.469 205.128 252.707 196.262 263.392C188.058 273.282 178.708 283.391 169.101 291.93C164.28 296.217 159.113 300.05 153.509 303.258L153.513 303.258ZM145.728 299.476C154.611 296.203 161.844 289.794 168.639 283.415C180.198 272.563 191.473 259.722 200.931 246.996C206.117 240.015 211.264 232.528 214.924 224.639C212.053 221.363 208.789 218.437 205.824 215.244C190.679 198.922 179.09 180.13 162.972 164.774L152.739 156.202L156.998 164.035C170.332 193.664 169.927 229.124 162.288 260.294C158.955 273.899 153.948 288.082 145.723 299.476L145.728 299.476ZM147.994 209.754C149.907 207.05 152.89 204.464 155.81 202.901C157.216 202.149 158.741 201.741 160.149 201.012C159.088 190.644 156.782 180.388 152.694 170.795L153.064 180.588C152.686 188.895 150.251 195.939 143.298 200.89C145.098 203.56 146.528 206.466 147.478 209.553L147.998 209.754L147.994 209.754ZM69.2702 169.811L70.5885 169.237L71.1036 166.574C70.5311 166.713 69.1294 169.603 69.2702 169.811ZM69.8269 175.595C63.953 175.61 59.0514 178.734 54.8638 182.548C43.8789 192.549 39.3307 206.067 44.4204 220.477C46.6839 226.891 53.0721 231.848 58.8209 235.278C61.0402 236.602 63.0115 236.819 65.4315 237.519C63.5095 232.352 63.303 228.458 64.9322 223.134C66.1797 219.05 73.4057 206.301 76.0778 202.723C76.9741 201.522 78.1345 200.6 79.0748 199.446C71.5023 193.974 68.9209 184.598 69.8266 175.599L69.8269 175.595ZM121.477 257.245C121.856 256.851 122.339 255.027 122.716 254.299C124.663 250.57 128.725 249.977 131.764 247.625C135.075 245.067 139.702 238.115 141.074 234.151C143.658 226.689 143.356 214.998 139.835 207.858C139.404 206.985 138.149 204.399 137.133 204.452C136.271 204.5 132.906 206.212 131.708 206.614C120.281 210.43 107.826 210.551 96.2558 207.078C93.2673 206.183 87.4027 203.221 84.6331 203.434C83.5572 203.516 81.9119 205.133 81.2597 205.997C78.7788 211.13 75.6032 215.97 73.0366 221.039C70.7215 225.621 69.628 228.494 71.127 233.558C74.964 246.496 83.1799 260.727 97.9618 262.652C101.803 263.15 112.391 260.191 116.566 259C117.533 258.723 120.932 257.802 121.468 257.249L121.477 257.245ZM160.695 207.947C157.139 209.032 153.829 211.8 151.601 214.712C148.415 218.883 149.492 220.388 149.327 225.112C149.089 231.747 147.288 237.697 143.767 243.284C139.976 249.297 136.049 251.541 134.969 259.353C133.921 266.958 135.55 277.694 143.405 281.104C144.385 281.531 146.465 282.34 147.441 282.02C148.94 281.529 150.812 275.532 151.395 273.889C157.902 255.586 161.043 235.558 161.052 216.186C161.055 213.452 160.755 210.677 160.696 207.943L160.695 207.947ZM60.037 243.097C57.7314 248.942 56.3433 256.084 56.3288 262.393C56.3167 267.585 59.0549 275.946 61.856 280.344C63.9918 283.698 72.6948 291.071 76.3645 292.649C78.9654 293.766 87.3612 295.639 90.2307 295.893C94.5657 296.279 99.0945 291.308 100.586 287.632C101.673 284.95 101.787 278.199 101.728 275.115C101.714 274.478 100.981 269.942 100.785 269.658C100.394 269.109 97.5525 269.21 96.65 269.054C82.7207 266.622 74.1546 257.267 68.355 245.04L60.0417 243.097L60.037 243.097ZM144.817 288.461C140.58 287.485 137.224 285.421 134.225 282.355C128.104 276.091 127.63 264.797 129.173 256.66C127.867 257.889 127.786 259.891 126.545 261.374C123.072 265.53 112.358 266.145 107.351 267.892C107.661 271.184 108.323 274.39 108.347 277.715C108.357 279.03 107.917 280.566 108.006 281.85C108.06 282.639 108.61 283.345 108.585 284.27C108.543 285.806 107.619 287.115 107.677 289.109C107.771 292.406 111.179 301.015 114.184 302.629C119.566 305.512 123.023 302.641 127.197 303.688C128.033 303.896 128.494 304.753 129.348 304.508C130.399 304.204 134.503 301.507 135.557 300.715C139.511 297.747 142.857 292.925 144.822 288.466L144.817 288.461ZM107.568 305.671C105.438 302.71 104.489 299.203 103.024 295.916C100.582 298.174 98.3617 301.277 94.8233 301.742C94.6479 302.406 94.8899 302.149 95.1498 302.309C98.3576 304.308 103.85 305.073 107.568 305.666L107.568 305.671Z" fill="#0E6160"/>
<path d="M64.1548 295.835C66.9033 295.758 67.6934 298.521 66.2794 300.64C63.6871 304.526 57.5071 309.005 54.4351 312.836C51.6814 314.867 48.5652 311.714 50.3466 308.87C53.3797 305.791 55.903 302.216 59.0833 299.269C60.1799 298.251 62.7226 295.877 64.15 295.834L64.1548 295.835Z" fill="#0E6160"/>
<path d="M42.3146 272.662C44.9944 272.833 46.3412 275.532 44.5368 277.561C43.6374 278.571 38.9651 279.352 37.335 279.871C34.8431 280.662 29.4099 283.205 27.0986 282.467C24.7873 281.729 24.9564 278.559 26.9945 277.347C29.6435 275.766 39.3391 272.47 42.3146 272.662Z" fill="#0E6160"/>
<path d="M21.3144 226.582C23.4096 226.294 25.9442 227.055 27.9961 227.342C30.4744 227.687 37.5226 227.732 36.2636 231.953C35.4915 234.537 31.8547 233.999 29.8144 233.747C27.6411 233.479 23.1391 232.797 21.1714 232.135C18.2992 231.168 18.7298 226.935 21.3196 226.578L21.3144 226.582Z" fill="#0E6160"/>
<path d="M329.574 215.892C332.152 215.96 332.916 218.639 332.285 220.742C330.875 225.453 320.362 228.198 316.052 227.69C312.563 227.274 306.761 223.619 305.281 220.392C303.838 217.236 307.283 214.56 309.967 216.926C310.48 217.38 310.618 217.965 311.076 218.395C312.477 219.703 314.599 221.267 316.552 221.473C318.505 221.68 324.575 219.897 326.056 218.519C327.064 217.585 327.641 215.846 329.574 215.892Z" fill="#0E6160"/>
<path d="M260.31 184.796C263.551 184.331 263.132 186.648 264.545 188.1C266.695 190.307 271.571 191.389 274.472 190.407C276.993 189.552 279.278 186.133 282.147 188.171C286.41 191.195 279.672 195.47 276.922 196.426C271.308 198.376 261.159 195.624 258.518 190.054C257.65 188.222 257.942 185.138 260.305 184.8L260.31 184.796Z" fill="#0E6160"/>
<path d="M345.638 186.708C348.662 186.555 349.417 190.075 347.991 192.346C344.241 198.319 327.066 198.074 323.567 191.982C322.115 189.456 324.064 186.444 327.142 187.524C327.822 187.763 328.36 188.73 328.96 189.115C332.319 191.256 339.254 190.999 342.525 188.743C343.567 188.027 344.064 186.782 345.639 186.704L345.638 186.708Z" fill="#0E6160"/>
<path d="M385.639 211.433C390.166 210.783 390.168 215.856 387.606 218.582C383.417 223.037 376.178 223.842 370.899 220.876C368.705 219.646 366.941 216.778 369.883 215.312C372.178 214.17 373.645 216.119 375.784 216.518C378.002 216.933 381.348 216.137 382.82 214.357C383.609 213.4 384.081 211.661 385.643 211.433L385.639 211.433Z" fill="#0E6160"/>
<path d="M258.459 275.857C261.779 275.829 263.434 281.379 261.084 284.08C257.462 288.243 246.981 288.887 242.856 285.296C240.157 282.947 241.851 279.087 245.233 279.92C246.365 280.201 247.114 281.272 249.024 281.537C250.195 281.697 254.731 281.397 255.41 280.503C255.771 280.021 255.345 279.216 255.432 278.578C255.629 277.189 257.034 275.872 258.459 275.857Z" fill="#0E6160"/>
<path d="M225.797 260.099C228.823 260.085 230.281 263.802 228.342 266.231C224.567 270.964 213.787 272.267 209.265 267.916C207.411 266.131 207.349 263.142 209.938 262.168C212.526 261.194 212.962 263.784 214.466 264.254C216.442 264.873 220.596 264.326 222.214 262.989C223.351 262.051 223.519 260.11 225.792 260.099L225.797 260.099Z" fill="#0E6160"/>
<path d="M402.033 265.448C405.444 264.958 406.495 268.441 404.261 270.912C401.456 274.015 392.812 275.797 389.183 274.017C385.872 272.391 387.381 267.306 390.564 267.592C391.083 267.635 391.557 268.095 392.101 268.189C394.1 268.533 397.531 268.37 399.318 267.362C400.193 266.867 401.014 265.592 402.033 265.448Z" fill="#0E6160"/>
<path d="M105.727 151.578C106.453 151.61 111.019 153.985 111.434 154.584C112.567 156.233 111.445 158.582 109.468 158.775C107.197 158.997 103.037 157.602 102.722 154.955C102.497 153.11 103.821 151.49 105.732 151.578L105.727 151.578Z" fill="#0E6160"/>
<path d="M94.7044 171.21C96.0577 171.136 96.2909 171.902 96.959 172.053C97.4013 172.152 97.8695 171.885 98.6272 172.111C102.349 173.24 99.7723 179.001 95.446 177.936C91.5518 176.98 90.6638 171.431 94.7092 171.21L94.7044 171.21Z" fill="#0E6160"/>
<path d="M121.948 173.755C125.347 173.92 125.88 177.866 122.682 179.195C120.958 179.912 118.126 180.191 116.738 178.732C115.35 177.272 115.897 174.22 117.978 173.935C118.681 173.841 121.227 173.719 121.943 173.755L121.948 173.755Z" fill="#0E6160"/>
<path d="M104.525 237.97C106.452 237.686 108.254 238.841 107.998 240.919C107.762 242.883 104.101 245.336 102.21 245.479C97.3754 245.844 96.3875 239.484 100.747 239.175C101.143 239.145 101.551 239.423 101.904 239.381C102.66 239.291 103.676 238.09 104.525 237.965L104.525 237.97Z" fill="#0E6160"/>
<path d="M80.4852 228.664C81.0224 228.661 81.7797 228.949 82.2133 229.268C82.9905 229.835 84.4444 232.342 85.2651 233.19C85.9222 239.78 77.6844 236.476 77.6747 231.891C77.6716 230.15 78.5952 228.678 80.49 228.664L80.4852 228.664Z" fill="#0E6160"/>
<path d="M126.191 219.486C128.115 221.765 124.933 226.16 122.31 226.52C119.293 226.932 117.935 223.854 119.825 221.598C120.337 220.986 122.526 218.998 123.199 218.753C124.306 218.353 125.406 218.56 126.186 219.486L126.191 219.486Z" fill="#0E6160"/>
<path d="M93.1756 214.115C94.3765 214.144 96.9171 215.924 97.1301 217.161C97.9118 221.687 91.5507 221.682 90.4052 217.78C89.8784 215.996 91.315 214.065 93.176 214.11L93.1756 214.115Z" fill="#0E6160"/>
<path d="M84.1272 275.875C85.4562 275.804 85.6537 276.595 86.3762 276.727C86.8955 276.823 87.4334 276.352 88.1233 276.472C91.6629 277.083 90.632 282.189 87.5661 283.367C81.796 285.581 79.086 276.137 84.122 275.879L84.1272 275.875Z" fill="#0E6160"/>
<path d="M74.3548 270.487C70.7472 273.498 66.5937 268.533 68.6065 264.699C69.4559 263.083 71.2916 262.399 72.9265 263.315C74.2499 264.057 73.7972 264.598 74.2843 265.537C75.1587 267.236 76.4626 268.727 74.3599 270.482L74.3548 270.487Z" fill="#0E6160"/>
<path d="M58.9317 202.125C61.5838 202.17 66.9705 201.846 65.9765 205.879C65.3611 208.366 61.1808 208.251 59.1187 208.318C57.0565 208.384 52.6889 208.502 50.7573 208.154C47.6732 207.6 47.281 203.575 50.2108 202.649C51.8311 202.134 57.0214 202.094 58.9317 202.125Z" fill="#0E6160"/>
<path d="M62.6337 213.886C65.5965 213.598 67.0726 216.356 65.1876 218.603C64.197 219.787 57.1549 223.97 55.5458 224.581C51.9562 225.945 49.4514 223.22 51.7231 220.073C54.7113 218.965 59.6805 214.174 62.6337 213.886Z" fill="#0E6160"/>
<path d="M57.299 187.116C57.7192 187.08 58.0985 187.073 58.517 187.17C59.6703 187.424 64.7144 191.599 65.4055 192.68C67.224 195.529 64.7919 198.414 61.8772 197.094C61.0965 196.742 56.1249 192.559 55.5572 191.838C54.1751 190.077 54.9957 187.316 57.299 187.116Z" fill="#0E6160"/>
<path d="M120.438 272.916C121.625 272.881 122.358 273.631 122.98 274.51C123.194 274.815 123.154 275.357 123.412 275.589C124.038 276.138 125.419 275.838 126.12 277.154C127.473 279.71 124.68 281.929 122.2 281.774C117.36 281.47 115.632 273.059 120.439 272.911L120.438 272.916Z" fill="#0E6160"/>
</svg>
