<svg width="20" height="23" viewBox="0 0 20 23" fill="none" xmlns="http://www.w3.org/2000/svg">
<path d="M18.75 4.5H14.25V0.75C14.25 0.551088 14.171 0.360322 14.0303 0.21967C13.8897 0.0790176 13.6989 0 13.5 0C13.3011 0 13.1103 0.0790176 12.9697 0.21967C12.829 0.360322 12.75 0.551088 12.75 0.75V4.5H6.75V0.75C6.75 0.551088 6.67098 0.360322 6.53033 0.21967C6.38968 0.0790176 6.19891 0 6 0C5.69906 0 5.25 0.212813 5.25 0.800625V4.5H0.801562C0.21375 4.5 0 4.94812 0 5.25C0 5.44891 0.0790176 5.63968 0.21967 5.78033C0.360322 5.92098 0.551088 6 0.75 6H2.25V14.25C2.25 15.2446 2.64509 16.1984 3.34835 16.9017C4.05161 17.6049 5.00544 18 6 18H9V21.75C9 21.9489 9.07902 22.1397 9.21967 22.2803C9.36032 22.421 9.55109 22.5 9.75 22.5C9.94891 22.5 10.1397 22.421 10.2803 22.2803C10.421 22.1397 10.5 21.9489 10.5 21.75V18H13.5C14.4946 18 15.4484 17.6049 16.1517 16.9017C16.8549 16.1984 17.25 15.2446 17.25 14.25V6H18.75C18.9489 6 19.1397 5.92098 19.2803 5.78033C19.421 5.63968 19.5 5.44891 19.5 5.25C19.5 5.05109 19.421 4.86032 19.2803 4.71967C19.1397 4.57902 18.9489 4.5 18.75 4.5ZM11.9522 11.5134L10.8272 14.5134C10.7573 14.6999 10.6162 14.851 10.435 14.9335C10.2537 15.0159 10.0471 15.023 9.86062 14.9531C9.67414 14.8833 9.52306 14.7422 9.4406 14.5609C9.35814 14.3796 9.35107 14.173 9.42094 13.9866L10.1709 12H8.25C8.12881 12 8.00942 11.9706 7.90206 11.9144C7.7947 11.8582 7.70257 11.7768 7.63354 11.6771C7.56452 11.5775 7.52067 11.4627 7.50574 11.3424C7.49081 11.2221 7.50524 11.1 7.54781 10.9866L8.67281 7.98656C8.74268 7.80008 8.88377 7.64899 9.06503 7.56654C9.2463 7.48408 9.45289 7.47701 9.63937 7.54688C9.82586 7.61674 9.97694 7.75783 10.0594 7.93909C10.1419 8.12036 10.1489 8.32696 10.0791 8.51344L9.32906 10.5H11.25C11.3712 10.5 11.4906 10.5294 11.5979 10.5856C11.7053 10.6418 11.7974 10.7232 11.8665 10.8229C11.9355 10.9225 11.9793 11.0373 11.9943 11.1576C12.0092 11.2779 11.9948 11.4 11.9522 11.5134Z" fill="#F1F1F1"/>
</svg>
