<svg width="17" height="21" viewBox="0 0 17 21" fill="none" xmlns="http://www.w3.org/2000/svg">
<path d="M16.2604 19.305C16.1132 19.4388 15.9189 19.5086 15.7203 19.4991C15.5216 19.4896 15.3348 19.4016 15.201 19.2544L14.9892 19.0219C14.9228 19.5674 14.659 20.0698 14.2476 20.4342C13.8362 20.7987 13.3056 20.9999 12.756 21H3.75605C3.15931 21 2.58701 20.7629 2.16506 20.341C1.7431 19.919 1.50605 19.3467 1.50605 18.75V4.18969L0.201048 2.75438C0.133423 2.68173 0.0808885 2.59639 0.0464895 2.50329C0.0120905 2.4102 -0.00348926 2.3112 0.000653776 2.21204C0.00479681 2.11288 0.0285803 2.01552 0.0706251 1.92562C0.11267 1.83572 0.17214 1.75505 0.245589 1.68831C0.319038 1.62156 0.405005 1.57005 0.498506 1.53677C0.592008 1.50349 0.691186 1.4891 0.79029 1.49443C0.889395 1.49976 0.986456 1.52471 1.07585 1.56783C1.16524 1.61095 1.24518 1.67138 1.31105 1.74562L16.311 18.2456C16.4448 18.3928 16.5146 18.5871 16.5051 18.7858C16.4956 18.9845 16.4076 19.1712 16.2604 19.305ZM13.701 13.1447C13.8029 13.2567 13.9362 13.3353 14.0835 13.3701C14.2308 13.4049 14.3852 13.3944 14.5264 13.3398C14.6676 13.2852 14.789 13.1892 14.8746 13.0644C14.9602 12.9395 15.006 12.7917 15.006 12.6403V2.25C15.006 1.65326 14.769 1.08097 14.347 0.65901C13.9251 0.237053 13.3528 0 12.756 0H3.44667C3.3014 1.4109e-05 3.15925 0.0422206 3.03751 0.121491C2.91576 0.200762 2.81966 0.313684 2.76088 0.446538C2.7021 0.579392 2.68317 0.726458 2.70639 0.869867C2.72961 1.01328 2.79397 1.14686 2.89167 1.25437L13.701 13.1447Z" fill="#F1F1F1"/>
</svg>
