<svg width="24" height="14" viewBox="0 0 24 14" fill="none" xmlns="http://www.w3.org/2000/svg">
<path d="M6 3.75V9.75C6 9.94891 5.92098 10.1397 5.78033 10.2803C5.63968 10.421 5.44891 10.5 5.25 10.5H3.75C3.55109 10.5 3.36032 10.421 3.21967 10.2803C3.07902 10.1397 3 9.94891 3 9.75V3.75C3 3.55109 3.07902 3.36032 3.21967 3.21967C3.36032 3.07902 3.55109 3 3.75 3H5.25C5.44891 3 5.63968 3.07902 5.78033 3.21967C5.92098 3.36032 6 3.55109 6 3.75ZM20.25 2.25V11.25C20.25 11.8467 20.0129 12.419 19.591 12.841C19.169 13.2629 18.5967 13.5 18 13.5H2.25C1.65326 13.5 1.08097 13.2629 0.65901 12.841C0.237053 12.419 0 11.8467 0 11.25V2.25C0 1.65326 0.237053 1.08097 0.65901 0.65901C1.08097 0.237053 1.65326 0 2.25 0H18C18.5967 0 19.169 0.237053 19.591 0.65901C20.0129 1.08097 20.25 1.65326 20.25 2.25ZM18.75 2.25C18.75 2.05109 18.671 1.86032 18.5303 1.71967C18.3897 1.57902 18.1989 1.5 18 1.5H2.25C2.05109 1.5 1.86032 1.57902 1.71967 1.71967C1.57902 1.86032 1.5 2.05109 1.5 2.25V11.25C1.5 11.4489 1.57902 11.6397 1.71967 11.7803C1.86032 11.921 2.05109 12 2.25 12H18C18.1989 12 18.3897 11.921 18.5303 11.7803C18.671 11.6397 18.75 11.4489 18.75 11.25V2.25ZM22.5 3C22.3011 3 22.1103 3.07902 21.9697 3.21967C21.829 3.36032 21.75 3.55109 21.75 3.75V9.75C21.75 9.94891 21.829 10.1397 21.9697 10.2803C22.1103 10.421 22.3011 10.5 22.5 10.5C22.6989 10.5 22.8897 10.421 23.0303 10.2803C23.171 10.1397 23.25 9.94891 23.25 9.75V3.75C23.25 3.55109 23.171 3.36032 23.0303 3.21967C22.8897 3.07902 22.6989 3 22.5 3Z" fill="#F1F1F1"/>
</svg>
