<?xml version="1.0" encoding="UTF-8"?>
<svg id="Layer_2" data-name="Layer 2" xmlns="http://www.w3.org/2000/svg" viewBox="0 0 58.42 34.26">
  <defs>
    <style>
      .cls-1, .cls-2 {
        fill: #f1f1f1;
      }

      .cls-2 {
        fill-rule: evenodd;
      }
    </style>
  </defs>
  <g id="Layer_1-2" data-name="Layer 1">
    <g>
      <path class="cls-2" d="M7.57,6.92l4.43-1.34c.42-.13.79.32.59.71l-7.2,13.97c-.11.21-.05.47.13.62l6.35,5.07c.07.06.13.14.16.23l1.67,4.77c.07.2.26.34.47.34h16.67c.27,0,.5-.22.5-.49l.06-5.86c0-.22.15-.42.36-.48l12.85-3.6c.36-.1.49-.56.23-.83l-6.89-7.19c-.09-.1-.22-.15-.36-.15h-10.68c-.28,0-.5.22-.5.5v7.6c0,.27-.21.49-.48.5l-8.23.26c-.29,0-.53-.24-.52-.53l.97-15.66c.01-.18-.07-.35-.22-.45L10.75.08c-.25-.17-.59-.08-.72.19l-3.04,5.94c-.2.39.17.83.59.71ZM10.01,29.25c0,2.76-2.24,5-5,5s-5-2.24-5-5,2.24-5,5-5,5,2.24,5,5ZM38.69,34.26c2.76,0,5-2.24,5-5s-2.24-5-5-5-5,2.24-5,5,2.24,5,5,5Z"/>
      <path class="cls-1" d="M58.42,23.53c0,.2-.04.4-.12.59-.08.19-.19.36-.34.5l-9.2,9.2c-.28.28-.67.45-1.09.45s-.8-.16-1.09-.45c-.28-.29-.45-.68-.45-1.09s.16-.8.45-1.09l6.58-6.58,1.53-1.53-1.53-1.53-6.57-6.58c-.29-.28-.45-.68-.45-1.09s.16-.8.45-1.09c.28-.28.68-.45,1.09-.45s.8.16,1.09.45l9.19,9.2c.15.14.26.31.34.5.08.19.12.38.12.59Z"/>
    </g>
  </g>
</svg>