<?xml version="1.0" encoding="UTF-8"?>
<svg id="Layer_2" data-name="Layer 2" xmlns="http://www.w3.org/2000/svg" viewBox="0 0 34.76 37.39">
  <defs>
    <style>
      .cls-1 {
        fill: #f1f1f1;
      }
    </style>
  </defs>
  <g id="Layer_1-2" data-name="Layer 1">
    <path class="cls-1" d="M33.84,36.56c-.45.44-1.02.72-1.64.8-.62.08-1.25-.03-1.79-.33l-13.02-6.96-13.07,6.85c-.55.29-1.18.41-1.79.32-.62-.09-1.19-.37-1.63-.81l-.04-.04c-.43-.43-.72-.99-.82-1.59-.1-.6,0-1.22.26-1.77L14.85,1.67s0-.02.01-.03c.24-.5.62-.91,1.09-1.2C16.43.15,16.97,0,17.52,0c.55,0,1.09.16,1.56.45.47.29.84.71,1.08,1.21v.03s14.31,31.48,14.31,31.48c.27.56.36,1.19.24,1.8-.11.61-.42,1.17-.87,1.59Z"/>
  </g>
</svg>