<?xml version="1.0" encoding="UTF-8"?>
<svg id="Layer_2" data-name="Layer 2" xmlns="http://www.w3.org/2000/svg" viewBox="0 0 37.23 44">
  <defs>
    <style>
      .cls-1 {
        fill: #f1f1f1;
      }
    </style>
  </defs>
  <g id="Layer_1-2" data-name="Layer 1">
    <path class="cls-1" d="M36.74,8.96L28.27.49c-.16-.16-.34-.28-.55-.37-.21-.09-.43-.13-.65-.13H10.15c-.9,0-1.76.36-2.39.99-.63.64-.99,1.5-.99,2.39v3.38h-3.38c-.9,0-1.76.36-2.39.99-.63.63-.99,1.49-.99,2.39v30.46c0,.9.36,1.76.99,2.39.64.63,1.5.99,2.39.99h23.69c.9,0,1.76-.36,2.39-.99.64-.64.99-1.5.99-2.39v-3.38h3.38c.9,0,1.76-.36,2.39-.99.63-.63.99-1.49.99-2.39V10.15c0-.22-.04-.44-.13-.65-.08-.21-.21-.39-.37-.55ZM20.31,35.54h-10.15c-.45,0-.88-.18-1.2-.49-.32-.32-.49-.75-.49-1.2s.18-.88.49-1.2c.32-.32.75-.5,1.2-.5h10.15c.45,0,.88.18,1.2.5.32.32.5.75.5,1.2s-.18.88-.5,1.2c-.32.32-.75.49-1.2.49ZM20.31,28.77h-10.15c-.45,0-.88-.18-1.2-.49-.32-.32-.49-.75-.49-1.2s.18-.88.49-1.2c.32-.32.75-.5,1.2-.5h10.15c.45,0,.88.18,1.2.5.32.32.5.75.5,1.2s-.18.88-.5,1.2c-.32.32-.75.49-1.2.49ZM33.85,33.85h-3.38v-16.92c0-.22-.04-.44-.13-.65-.09-.2-.21-.39-.37-.55l-8.46-8.46c-.16-.16-.34-.28-.55-.37-.21-.08-.43-.13-.65-.13h-10.15v-3.38h16.22l7.47,7.47v22.99Z"/>
  </g>
</svg>