<?xml version="1.0" encoding="UTF-8"?>
<svg id="Layer_2" data-name="Layer 2" xmlns="http://www.w3.org/2000/svg" viewBox="0 0 44 34.76">
  <defs>
    <style>
      .cls-1 {
        fill: #f1f1f1;
      }
    </style>
  </defs>
  <g id="Layer_1-2" data-name="Layer 1">
    <path class="cls-1" d="M43.02,28.27c-1.8-4.17-5.8-8.34-9.47-12.51-1.04-1.17-2.04-2.35-2.97-3.52-1.96-2.49-3.55-4.98-4.23-7.47-.34-1.23-.45-2.47-.27-3.7.08-.56-.36-1.06-.93-1.06h-9.06c-.22,0-.42.08-.59.21-1.9,1.52-3.35,3.03-4.45,4.55-1.81,2.49-2.71,4.98-3.24,7.47-.25,1.17-.42,2.35-.55,3.52-.5,4.17-.66,8.34-3.04,12.51-.92,1.62-2.18,3.24-3.91,4.87-.62.58-.22,1.63.64,1.63h42c.45,0,.85-.32.93-.77.35-1.91-.01-3.82-.84-5.73h0ZM17.61,4.76h2.17c-.39,2.49.13,4.98,1.03,7.47h-3.23c-.54-2.49-.71-4.98.03-7.47h0ZM20.86,28.27c.58-4.17-1.04-8.34-2.33-12.51h3.73c1.88,4.17,4.1,8.34,4.1,12.51h-5.51Z"/>
  </g>
</svg>