<?xml version="1.0" encoding="UTF-8"?>
<svg id="layer" xmlns="http://www.w3.org/2000/svg" xmlns:xlink="http://www.w3.org/1999/xlink" version="1.1" viewBox="0 0 652 652">
  <!-- Generator: Adobe Illustrator 29.2.1, SVG Export Plug-In . SVG Version: 2.1.0 Build 116)  -->
  <defs>
    <style>
      .st0 {
        fill: #ee313c;
      }

      .st1 {
        fill: #034ea2;
      }
    </style>
  </defs>
  <polygon class="st1" points="23.8 377.9 29.4 359.8 40.3 359.8 53.6 299.8 44.3 299.8 41.7 309.9 20.2 309.9 20.2 309.9 27.7 279 42.3 279 49.6 279 74.4 279 75.7 279 99.4 279 107.8 279 122 279 115.4 309.9 93.5 309.9 95.4 300.2 86.6 300.2 72 359.8 85.7 359.8 82.1 377.9 23.8 377.9"/>
  <polygon class="st1" points="138 377.9 133.5 296.8 125 296.8 125 279 157.7 279 162.9 279 179.7 279 179.7 297.6 166.5 297.6 166.5 346.7 194.7 296.8 184.9 296.8 184.9 279 235.4 279 175 377.9 138 377.9"/>
  <g>
    <path class="st1" d="M222.1,347.7h18.8v9.8s.3.7,9.1.7,13.6-2.6,13.6-7.9-3.8-8.4-10.4-12.2c-7.1-4-21.1-8.6-21.1-27.5s19.3-33.2,49.9-33.2,28.9,3.9,28.9,3.9c0,0-3.4,4.3-5.2,13.2-1.8,9-2.1,13.8-2.1,13.8h-17.8c0,.1,0-7.3,0-7.3,0,0-4.4-1.8-7-1.8-4.5,0-12.3,2.1-12.3,7.8s1,6.1,7.5,9.8c6.5,3.7,15.3,6.9,20.6,13.7,4.9,6.3,4,13.6,4,15.2,0,2.3-1.1,11.8-11.1,21.4-5.2,5-12.7,10.1-24.3,12.3-5.7,1.1-10.1,1.1-16.9,1.1-24.6,0-31.7-4.6-31.7-4.6l7.5-28.2Z"/>
    <path class="st0" d="M355,294.4s5-5.2,13-5.5,14.8,4.3,17,5.5,9.5,6.1,12.1,7.2c2.6,1,3.4,1.5,7.2,1.5s5.1-.6,7.7-1.7c2.5-1.2,5.5-2.5,11.2-2.5s13.4,2.4,13.4,2.4c0,0-7.8-.3-18.4,5.3-10.6,5.6-16.3,9.4-22.3,9.4s-10.7-5-15.1-8.7c-4.3-3.7-6.8-4.5-7.8-4.9s-2.7-.7-2.7-.7c0,0,1.4,0,3.5-.7s3.1-1.3,3.1-1.3c0,0-2.8-3.8-9.8-5-5.6-.8-12.1-.3-12.1-.3"/>
    <path class="st0" d="M329.5,373.6l19.6-4.6v4.3s9.7-.8,18.8-4.9c9.1-4.1,13.7-8.4,17.7-12.7,4-4.3,5.7-6.5,7.2-8.3,1.5-1.9,2.6-3.4,2.6-3.4,0,0,6.3-.7,11.3-5.1s11-14.5,12.8-17.3,4.6-8.9,10.3-12.6c5.7-3.7,11.3-3.7,12.7-3.7,12.3,0,23.7,11.7,40.2,11.7s20.4-4.8,27.4-10c7-5.2,10.4-8.2,14.9-12,4.6-3.8,15.8-12,26.2-12s10.8.8,10.8.8l6.3-8.1,1.5,13.5,20.7,22.4-3.6,5.1h-13.7v-3.1s-6.2-5-12.8-5-10.1,4.8-10.1,8.4,3.7,8,10,12.1c7.7,5,21.2,14.3,26.8,18.5,5.9,4.3,15.3,11.7,21.2,16.9,9.5,8.3,12,13.6,12,13.6l-18.9-3.1,1.9-3.9s-3.7-3.4-8.4-6.6c-4.1-2.8-9.1-5.4-12.2-6.6-6.7-2.6-14.5-4.8-20.5-5.5s-12.8-1.4-20.9.4c-8.1,1.8-12.4,5.6-12.4,5.6l-6.7-5s-11.1,3.8-24.5,3.8-22.5-2.7-30-5.3c-5.3-1.8-8.5-3.9-8.5-3.9,0,0-7.5,7.8-30.2,7.8s-20.1-.8-20.1-.8c0,0-9.3,8.4-22.5,14.5s-22.9,8.8-33.5,8.8c-13.9-.2-23.4-4.7-23.4-4.7"/>
    <path class="st0" d="M561.6,279.7l5.5-5.4s-10.5-10.4-24.6-10.4c-20.6,0-32.7,10.5-32.7,10.5l3.3,3.5s-3.4,1.5-9,5.4c-6.7,4.7-9,7.3-9,7.3l8.1-.8s-4.5,6.2-8.2,9.6-7,5.2-13.7,6.7c-6.8,1.5-8.4,1.1-8.4,1.1,0,0,3.7,1.3,9.4,1.3s11.7-.6,20.8-7.2c9.2-6.6,22.4-16.9,30.5-20.3,8.1-3.4,13.4-3.5,15.3-3.5,10.8-.1,12.7,2.2,12.7,2.2"/>
  </g>
</svg>