<svg width="120" height="35" viewBox="0 0 120 35" fill="none" xmlns="http://www.w3.org/2000/svg">
<g clip-path="url(#clip0_604_1858)">
<path d="M9.71642 5.16113H17.0057C17.1433 5.16113 17.2463 5.19565 17.315 5.33313L24.8621 19.0521C25.2231 19.7227 26.2547 19.4477 26.2547 18.6911V5.4192C26.2547 5.26439 26.3579 5.16128 26.5125 5.16128H32.0998C32.2546 5.16128 32.3576 5.26454 32.3576 5.4192V29.1438C32.3576 29.2984 32.2545 29.4016 32.0998 29.4016H24.7762C24.6385 29.4016 24.5354 29.367 24.4667 29.2296L16.9712 15.5279C16.593 14.8574 15.5614 15.1326 15.5614 15.8889V29.1438C15.5614 29.2984 15.4583 29.4016 15.3036 29.4016H9.71627C9.56161 29.4016 9.4585 29.2983 9.4585 29.1438V5.4192C9.4585 5.26439 9.56175 5.16128 9.71627 5.16128L9.71642 5.16113Z" fill="white"/>
<path d="M58.3863 17.2812C58.3863 24.8627 53.4694 29.9171 46.0942 29.9171C38.719 29.9171 33.7334 24.8627 33.7334 17.2812C33.7334 9.69957 38.6845 4.64539 46.0942 4.64539C53.5039 4.64539 58.3863 9.69972 58.3863 17.2812ZM46.0942 24.7252C49.7389 24.7252 51.7675 22.0433 51.7675 17.264C51.7675 12.4846 49.7389 9.8372 46.0942 9.8372C42.4153 9.8372 40.3522 12.5018 40.3522 17.264C40.3522 22.0262 42.4151 24.7252 46.0942 24.7252Z" fill="white"/>
<path d="M60.0195 5.16113H65.7787C65.9163 5.16113 66.0366 5.28158 66.0366 5.41906V29.1436C66.0366 29.2813 65.9162 29.4014 65.7787 29.4014H60.0195C59.8819 29.4014 59.7617 29.2811 59.7617 29.1436V5.41906C59.7617 5.28143 59.8822 5.16113 60.0195 5.16113Z" fill="white"/>
<path d="M67.2229 22.8857C67.1714 22.7309 67.2229 22.6108 67.3948 22.5591L72.5007 21.029C72.6383 20.9946 72.793 21.029 72.8445 21.1838C73.601 23.5563 75.5264 24.9143 77.8301 24.9143C79.8588 24.9143 81.6812 24.1579 81.6812 22.4214C81.6812 21.3899 81.028 20.8055 79.8588 20.5132L73.79 19.0347C69.6813 18.0376 67.6527 15.1665 67.6527 12.0894C67.6527 7.70555 71.7787 4.62823 77.2972 4.62823C82.5579 4.62823 86.065 7.27577 87.3889 11.0923C87.4576 11.2642 87.3543 11.3673 87.2169 11.4189L82.3517 13.0694C82.2139 13.1209 82.0766 13.0522 82.0251 12.9146C81.4922 11.3672 80.1168 9.57931 77.4005 9.57931C75.3547 9.57931 73.9278 10.6109 73.9278 11.8486C73.9278 12.8458 74.8562 13.4991 75.7329 13.7054L81.5779 15.0979C85.5493 16.0434 87.9388 18.3127 87.9388 21.9231C87.9388 26.8915 83.469 29.9171 77.6926 29.9171C72.0022 29.9171 68.6843 27.1836 67.2229 22.8857Z" fill="white"/>
<path d="M95.6752 20.7713V22.8686C95.6752 23.6078 96.2251 24.1579 96.9645 24.1579H107.228C107.366 24.1579 107.486 24.2784 107.486 24.4158V29.1435C107.486 29.2811 107.365 29.4013 107.228 29.4013H89.5035C89.3659 29.4013 89.2456 29.281 89.2456 29.1435V5.41893C89.2456 5.28131 89.3661 5.16101 89.5035 5.16101H106.867C107.005 5.16101 107.125 5.28145 107.125 5.41893V10.1466C107.125 10.2844 107.005 10.4045 106.867 10.4045H96.638C96.002 10.4045 95.5377 10.8688 95.5377 11.5048V13.2583C95.5377 13.8943 96.002 14.3758 96.638 14.3758H105.595C105.732 14.3758 105.853 14.4961 105.853 14.6335V19.3098C105.853 19.4474 105.732 19.4817 105.595 19.4817H96.9647C96.2254 19.4817 95.6753 20.0319 95.6753 20.7711L95.6752 20.7713Z" fill="white"/>
<path d="M108.647 5.58352C108.647 2.51385 111.124 0.0369873 114.345 0.0369873C117.566 0.0369873 120.043 2.51385 120.043 5.58352C120.043 8.6532 117.567 11.1301 114.345 11.1301C111.123 11.1301 108.647 8.65305 108.647 5.58352ZM116.549 5.58352C116.549 4.32225 115.606 3.37986 114.345 3.37986C113.084 3.37986 112.142 4.32225 112.142 5.58352C112.142 6.84479 113.084 7.78689 114.345 7.78689C115.606 7.78689 116.549 6.84479 116.549 5.58352Z" fill="white"/>
</g>
<defs>
<clipPath id="clip0_604_1858">
<rect width="120" height="34.612" fill="white"/>
</clipPath>
</defs>
</svg>
